<svg xmlns="http://www.w3.org/2000/svg" pointer-events="none" class="leaflet-zoom-animated" width="1452" height="857" viewBox="-121 -71 1452 857" style="transform: translate3d(-121px, -71px, 0px);"><g>
    <path class="leaflet-interactive" stroke="#201920" stroke-opacity="1" stroke-width="2" stroke-linecap="round" stroke-linejoin="round" fill="none" d="M362 314L362 310L361 311L359 307L363 305L362 302L365 299L366 300L369 297L371 297L371 295L374 296L376 294L377 297L383 297L388 289L393 290L396 287L397 288L397 286L403 284L406 281L413 279L413 272L416 269L415 268L418 267L418 263L415 256L415 250L411 248L411 246L424 242L432 244L433 243L430 240L430 238L436 220L443 223L452 224L456 222L458 220L456 209L460 205L462 206L465 204L467 200L466 199L468 197L474 197L476 204L481 206L483 210L489 210L490 213L493 212L493 214L496 216L498 223L500 223L501 226L501 229L499 231L500 234L498 237L499 244L500 243L503 245L504 244L510 246L520 246L531 254L536 254L535 257L537 257L538 262L544 271L550 270L569 273L585 273L592 278L593 277L598 280L608 281L609 283L613 284L616 281L633 274L643 275L654 272L662 264L666 263L669 260L665 254L666 249L669 245L682 249L686 247L691 241L698 241L704 236L703 235L708 230L712 230L713 227L717 228L719 226L724 225L726 227L733 226L732 221L722 211L717 210L713 214L704 212L701 215L698 212L698 210L700 208L707 188L715 192L722 187L728 185L729 182L727 182L727 180L732 173L734 165L737 162L739 162L740 159L739 154L737 152L734 153L734 151L742 143L743 144L759 140L763 140L767 143L768 142L770 145L773 146L779 146L779 149L781 149L782 153L785 155L784 158L786 159L785 160L788 165L787 166L789 167L789 173L792 176L793 183L795 183L794 188L797 192L804 191L804 193L810 193L810 195L812 195L816 200L820 200L818 203L821 207L819 209L823 215L834 214L839 209L841 210L848 206L855 206L852 207L851 212L853 214L847 220L848 221L845 228L846 231L839 244L836 245L829 242L827 244L828 245L822 247L825 257L825 263L823 269L818 271L819 274L816 271L816 269L813 268L812 273L810 275L809 274L806 279L798 279L801 284L799 286L792 285L790 283L791 282L789 282L790 281L787 282L782 291L775 294L769 299M402 381L399 378L399 376L402 373L404 377L406 375L406 371L401 365L401 361L404 358L398 354L396 346L391 347L384 344L384 342L381 343L379 340L380 337L377 334L375 334L375 332L367 330L369 328L371 329M628 471L626 471L627 468L625 468L627 464L625 462L620 463L616 459L614 459L612 463L607 463L604 466L602 464L600 464L597 467L594 464L592 464L591 467L586 466L586 478L582 477L582 473L574 475L574 473L572 473L571 470L567 470L567 464L569 462L564 460L564 456L562 454L564 452L558 452L554 454L553 453L555 451L553 449L555 445L554 444L562 436L561 435L563 431L563 423L560 420L560 422L558 420L558 416L554 414L554 412L552 414L553 415L551 415L552 418L549 420L542 415L538 415L535 416L535 418L532 420L527 421L521 427L517 428L509 428L509 422L505 422L504 417L499 418L490 415L486 419L484 424L482 422L483 417L481 416L479 418L474 419L470 419L465 416L463 418L461 416L461 418L457 414L454 415L453 411L450 412L445 407L445 405L441 407L436 402L434 402L434 400L433 401L432 399L430 399L429 396L424 395L422 399L408 389L405 390L402 387L402 381M637 475L632 474L628 471M640 604L639 595M648 520L651 524L652 529M656 553L654 561M668 625L676 622M698 594L703 588M722 564L725 555M726 522L726 531M734 497L729 505M749 473L743 481M754 458L756 448" id="国界"/>
    <path class="leaflet-interactive" stroke="#201920" stroke-opacity="1" stroke-width="2" stroke-linecap="butt" stroke-linejoin="round" stroke-dasharray="4,4" stroke-dashoffset="4" fill="none" d="M371 329L373 327L371 325L371 317L369 315L366 314L364 316L362 314" id="争议"/>
    <path class="leaflet-interactive" stroke="gray" stroke-opacity="1" stroke-width="1" stroke-linecap="round" stroke-linejoin="round" stroke-dasharray="8,4,4,4" fill="none" d="M682 469L682 469M687 466L685 466L684 469L689 469L689 467L687 466" id="港澳"/>
    <path class="leaflet-interactive" stroke="#FF0000" stroke-opacity="1" stroke-width="1" stroke-linecap="round" stroke-linejoin="round" fill="#FF0000" d="M686 468L686 466L684 467L683 464L682 469L680 471L679 470L679 472L676 471L674 473L671 472L669 474L659 476L655 479L655 481L658 484L656 486L652 486L650 480L652 476L650 474L648 476L646 476L646 474L637 475M656 478L656 478M656 478L656 480L656 478M682 469L682 469M686 468L686 468M686 468L686 468M686 468L686 468M733 429L730 430L732 430L733 433L730 434L731 437L729 439L733 439L731 441L728 440L728 442L726 442L727 443L726 444L726 442L724 446L723 445L724 446L722 449L719 448L719 450L713 457L709 457L705 463L699 463L697 465L695 463L692 466L690 464L690 466L689 467L689 465L687 467L689 467L686 468M733 429L733 429M748 407L746 411L747 414L744 417L743 416L742 419L741 418L733 431L732 430L734 428L733 429M746 333L744 335L740 335L741 338L740 337L739 340L736 341L736 339L736 341L727 352L737 360L741 370L741 374L746 378L745 379L749 381L749 383L744 381L742 383L744 385M744 385L750 390L749 391L751 393L747 391L742 394L745 395L749 400L751 400L748 402L750 403L749 407M746 333L746 333M746 333L746 333M752 307L749 311L745 313L742 312L747 309L747 307L746 308L743 305L745 305L745 303L752 296L751 293L750 294L748 292L743 291L738 296L738 298L731 301L728 304L728 306L722 310L722 312L719 311L719 309L717 309L715 313L715 317L717 317L717 319L724 320L727 323L728 322L728 324L725 325L725 327L728 330L732 330L732 328L736 325L735 324L739 323L745 325L745 327L751 326L755 328L752 333L746 333M746 333L746 333M748 407L748 407M748 407L748 407M748 407L748 407M749 407L748 407M749 407L749 407M751 399L751 399M751 399L751 399M751 399L751 399M752 399L751 399M751 399L749 397L751 397L752 399M752 399L752 399M752 397L753 396L752 397M752 397L752 397M752 307L752 307M769 299L767 303L761 303L752 307M753 392L753 392M753 392L753 392M755 391L755 391M644 474L644 474M646 479L646 479M649 489L649 489M649 593L650 591L653 592L652 591L649 593M650 504L642 500L642 494L647 489L659 486L662 490L659 493L657 499L651 502L650 504M653 589L654 588L653 589M656 482L656 482M657 478L657 478M657 589L657 589M657 587L658 586L657 587M658 479L658 477L658 479M658 485L658 485M658 587L658 587M658 480L658 480M663 523L663 523M665 513L666 512L665 513M665 583L665 583M665 518L665 518M665 577L665 577M666 591L666 591M666 589L666 589M666 518L666 518M666 517L666 517M666 588L667 589L666 588M666 520L666 520M666 582L667 583L666 582M666 517L666 517M667 590L667 590M667 517L667 517M667 520L668 519L667 520M667 518L668 517L667 518M667 521L667 521M669 587L669 587M669 519L669 519M669 621L669 621M671 581L671 581M671 581L671 581M671 621L671 621M671 515L671 515M671 524L671 524M671 513L672 514L671 513M671 580L672 581L671 580M671 620L671 620M672 580L672 580M672 607L672 607M672 514L672 514M672 515L672 515M673 519L672 520L673 519M673 474L673 474M673 606L673 606M673 522L674 521L673 522M673 518L674 517L673 518M673 575L673 575M673 607L674 606L673 607M673 605L674 606L673 605M674 581L674 581M674 604L674 604M674 611L674 611M674 474L674 474M674 607L674 607M674 609L674 609M674 518L675 519L674 518M674 611L674 611M675 473L674 474L675 473M675 519L675 519M675 516L675 516M676 474L675 473L676 474M676 580L676 580M676 474L676 474M676 515L676 515M676 589L676 589M676 575L676 575M676 575L676 575M677 612L677 612M677 584L677 584M677 492L677 492M677 574L677 574M677 472L677 472M678 471L678 471M678 472L678 472M679 471L679 471M679 601L679 601M679 587L679 587M679 587L680 586L679 587M682 469L682 469M682 569L682 569M682 596L682 596M682 580L683 579L682 580M683 578L683 578M683 471L683 471M683 525L683 525M683 471L683 471M683 471L683 471M683 471L683 471M683 591L684 590L683 591M684 593L684 593M684 467L684 467M684 470L684 470M684 495L684 495M684 469L686 469L684 469M684 571L684 571M684 526L684 526M684 524L685 525L684 524M684 588L685 587L684 588M684 591L689 588L690 589L688 591L684 591M685 580L684 581L685 580M685 523L685 523M685 581L685 581M685 580L686 581L685 580M685 527L685 527M686 571L686 571M686 564L686 564M686 587L686 587M686 522L686 522M686 469L686 469M687 471L687 471M687 576L687 576M687 468L687 468M687 471L687 471M687 581L687 581M687 521L687 521M687 470L687 470M687 526L687 526M687 569L687 569M687 573L687 573M687 469L687 469M687 525L688 526L687 525M688 574L688 574M688 560L688 560M688 466L688 466M688 563L688 563M688 468L688 468M688 570L688 570M688 565L688 565M688 559L688 559M689 521L689 521M689 572L689 572M689 525L689 525M689 573L689 573M689 564L689 564M689 565L689 565M689 572L689 572M689 587L690 586L689 587M690 572L690 572M690 572L690 572M690 560L690 560M690 572L690 572M690 581L691 580L690 581M690 525L690 525M690 572L691 571L690 572M690 560L691 559L690 560M690 467L690 467M691 591L691 591M691 586L691 586M691 568L691 568M691 559L691 559M691 563L692 562L691 563M691 520L691 520M691 573L691 573M692 586L692 586M692 562L692 562M692 523L692 523M692 565L692 565M692 594L692 594M692 588L692 588M693 564L693 564M693 521L693 521M693 592L693 592M693 562L693 562M695 584L696 585L695 584M695 583L696 584L695 583M696 570L696 570M696 539L696 539M697 576L697 576M697 572L697 572M697 584L698 583L697 584M699 567L699 567M699 567L699 567M699 567L699 567M699 568L700 567L699 568M700 567L700 567M700 574L701 573L700 574M700 564L700 564M701 479L701 479M701 478L702 479L701 478M701 577L701 577M702 571L702 571M703 575L703 575M704 580L704 580M705 573L705 573M705 578L705 578M705 573L705 573M705 568L707 568L705 568M706 573L706 573M707 567L707 567M707 519L707 519M707 559L708 560L707 559M707 482L707 482M707 579L707 579M708 481L708 483L708 481M708 567L708 567M711 458L709 458L711 458M711 566L711 566M711 565L711 565M712 569L712 569M712 566L713 565L712 566M712 562L712 562M712 571L712 571M713 563L713 563M715 566L715 566M715 563L715 563M715 529L716 528L715 529M716 565L716 565M718 449L718 449M719 449L718 448L719 449M719 450L720 449L719 450M721 449L720 450L721 449M723 310L723 310M724 309L724 309M724 309L725 310L724 309M729 460L729 460M729 443L730 442L729 443M730 459L730 459M730 456L730 456M730 456L730 456M730 439L730 439M731 434L731 434M731 457L730 458L731 457M731 438L731 438M731 439L731 439M731 430L732 429L731 430M731 441L731 441M731 441L731 441M732 430L732 430M733 439L733 439M733 434L733 434M733 436L733 436M734 458L734 458M734 433L733 434L734 433M734 431L734 431M735 431L735 431M735 430L735 430M735 428L735 428M735 344L735 344M736 427L736 427M736 468L736 468M736 427L736 427M737 324L737 324M738 432L738 432M739 322L738 321L739 322M739 471L735 464L734 457L740 447L745 442L747 442L749 444L749 449L745 461L741 466L741 472L739 471M739 321L739 321M739 322L739 322M740 320L740 320M740 295L740 295M740 318L740 318M741 317L741 317M741 318L741 318M742 337L742 337M742 418L742 418M742 422L742 422M742 418L743 417L742 418M743 418L744 417L743 418M745 382L750 385L749 386L743 382L745 382M745 375L745 375M745 465L745 465M746 470L746 470M747 471L747 471M747 385L747 385M747 407L747 407M748 411L748 411M748 387L746 386L748 387M748 386L750 387L748 386M748 398L748 398M748 410L748 410M748 411L749 410L748 411M749 413L749 413M749 398L748 399L749 398M749 387L749 387M749 413L749 413M749 440L749 440M749 446L749 446M749 398L749 398M749 388L750 387L749 388M749 396L749 396M750 407L750 407M750 401L750 401M750 399L750 399M750 397L750 397M750 393L750 393M750 399L750 399M750 399L750 399M751 399L751 399M751 399L751 399M751 397L751 397M751 396L752 397L751 396M751 397L751 397M751 404L751 404M751 402L750 401L751 402M751 402L751 402M751 399L752 400L751 399M752 400L752 400M752 400L752 400M752 402L751 401L752 402M752 400L753 399L753 401L752 400M753 309L753 309M753 399L753 399M753 395L753 395M754 395L754 395M754 309L754 309M754 308L754 308M754 393L754 393M755 309L756 308L755 309M756 398L756 398M756 311L755 310L756 311M756 392L756 392M756 392L756 392M758 305L757 306L758 305M758 306L758 306M759 311L759 311M760 438L762 438L760 438M762 437L762 437M763 436L764 437L763 436M763 439L763 439M763 438L763 438M763 439L763 439M763 303L763 303M770 436L769 437L770 436" id="海洋"/>
    <path class="leaflet-interactive" stroke="#747569" stroke-opacity="0.6" stroke-width="1" stroke-linecap="round" stroke-linejoin="round" fill="#FF0000" d="M490 340L481 337L471 337L463 339L460 344L452 344L445 348L436 347L435 344L431 344L431 346L429 346L427 349L415 347L415 349L413 351L412 350L411 355L409 357L408 356L404 358M554 375L552 375L552 377L549 380L547 380L546 383L543 381L542 384L540 382L537 383L535 381L536 378L535 379L533 377L535 377L533 377L530 374L524 376L519 375L517 373L510 373L505 370L499 370L495 368L489 360L491 360L491 352L489 352L488 349L491 343L487 341L490 340M512 311L505 312L503 314L497 314L496 316L493 317L494 319L496 319L496 324L498 324L503 331L501 331L498 334L498 336L501 337L499 341L493 339L491 341L490 340M587 365L586 366L585 364L583 364L579 360L579 358L580 357L589 360L589 358L591 358L588 355L588 353L592 349L591 348L595 346L594 343L596 343L597 341L595 335L592 332L594 330L588 324L587 325L583 323L574 316L574 318L572 318L564 310L559 311L557 313L552 309L548 309L549 314L546 317L546 319L544 318L542 320L538 317L529 318L527 313L523 314L523 312L518 312L517 309L512 311M544 271L540 274L542 277L540 281L535 283L532 282L524 289L522 293L516 294L514 304L511 308L512 311M607 327L600 323L600 317L604 315L607 310L605 308L606 307L603 306L597 310L593 308L587 310L589 312L587 314L580 311L579 307L569 302L575 294L574 291L566 291L566 293L565 292L562 294L562 292L559 294L559 291L556 289L554 285L555 283L550 270M566 406L564 392L561 387L564 386L560 382L558 376L554 375M587 365L586 370L582 368L583 373L577 375L575 373L574 374L572 370L571 373L564 370L560 360L556 359L554 360L554 362L552 362L552 364L555 367L552 370L553 371L551 371L554 375M558 416L558 414L562 416L562 408L564 410L564 406L566 406M615 420L614 417L610 419L608 417L608 411L604 411L604 414L600 416L601 419L596 424L597 431L594 434L594 432L587 435L587 433L585 433L585 429L579 421L580 420L578 418L576 420L573 417L573 412L570 410L568 412L568 416L566 414L566 406M617 371L616 374L610 374L607 371L608 368L606 364L599 363L596 358L590 362L593 365L588 370L587 365M634 323L631 320L625 318L629 311L627 307L623 308L623 310L622 309L620 313L620 321L618 324L607 327M607 327L609 327L616 334L615 335L617 339L617 344L619 344L619 346L621 346L624 349L624 345L629 342L629 340L625 338L625 332L627 330L631 330M615 420L615 422L611 424L607 424L604 422L602 426L603 431L609 429L610 430L607 439L610 442L612 442L609 447M609 447L609 449L613 449L615 453L620 452L622 454L621 458L620 457L617 460M649 435L648 438L645 437L644 438L646 438L646 440L643 439L642 442L638 440L639 441L635 443L632 442L631 439L621 447L614 444L610 448L609 447M624 413L622 411L618 413L618 415L619 414L623 416L624 418L622 420L615 420M631 330L631 332L638 336L639 335L642 338L642 347L640 349L635 348L635 352L625 350L626 353L624 355L627 358L625 358L626 365L620 365L619 368L621 369L618 372L617 371M641 378L635 378L634 376L632 376L633 375L631 376L629 374L630 373L623 374L621 372L618 373L617 371M647 413L646 416L644 416L640 408L636 408L634 406L632 406L632 410L629 409L627 413L625 413L625 411L624 413M624 413L623 409L619 409L619 407L615 403L619 399L617 397L621 395L623 397L626 396L626 398L629 399L632 396L632 392L637 391L637 387L641 384L639 380L641 378M631 330L631 326L634 323M662 307L662 305L659 308L656 308L654 306L655 307L653 309L652 308L653 309L646 316L646 321L644 321L642 325L634 323M641 378L650 383M650 383L655 388L655 390L649 394L640 394L640 396L642 397L640 401L642 401L645 404L644 405L646 404L647 407M647 407L647 413M685 408L683 408L682 401L678 404L677 401L672 404L668 400L664 400L662 398L658 398L658 402L651 401L651 403L650 402L647 407M649 435L649 433L647 433L649 425L644 426L644 424L646 424L645 423L649 421L647 413M669 447L668 446L665 448L665 444L661 444L665 437L663 437L662 432L658 432L655 436L653 434L651 436L649 435M661 368L659 370L657 368L649 368L651 372L652 371L655 374L651 374L649 376L650 383M651 475L651 476M651 475L655 471L656 472L656 470L659 469L659 467L662 464L664 464L664 458L670 450L669 447M652 487L653 487M654 487L656 486M656 355L655 352L658 345L656 331L660 325L657 322L657 320L660 317L661 312L663 310L662 307M656 355L661 368M656 355L666 353L669 350L670 351L670 349L676 349L682 345L683 338M657 486L658 485M696 386L694 384L691 385L690 382L685 383L683 379L684 378L682 376L680 378L678 376L671 377L667 375L661 368M661 369L661 369M686 293L686 295L676 297L676 299L673 297L668 305L665 304L665 306L662 307M669 447L671 443L675 443L675 445L677 445L678 442L676 442L678 440L682 442L685 440M697 340L694 339L693 341L683 338M683 338L681 334L683 334L683 332L684 333L683 330L686 327L686 323L684 319L682 319L682 315L684 313L683 311L688 310L690 306L689 303L685 301L685 299L686 300L686 298L689 297L686 293M703 401L701 402L697 400L697 402L695 402L692 405L688 405L685 408M685 440L685 436L687 434L685 434L686 431L684 429L684 424L682 422L682 420L687 415L687 411L685 408M685 440L685 442L691 442L691 444L689 444L687 448L689 449L696 446L700 448L699 447L701 445M727 287L720 286L720 278L719 279L717 277L718 276L716 272L710 274L706 280L705 279L702 282L700 280L696 282L696 284L692 284L693 280L689 278L687 284L684 285L686 293M703 355L703 357L706 358L707 361L704 364L700 360L698 362L699 365L697 365L696 368L692 370L695 373L695 375L701 375L701 381L698 382L696 386M703 401L700 395L700 391L702 389L696 386M717 318L712 323L708 323L705 326L704 325L703 328L701 328L701 330L696 335L697 340M703 355L697 355L697 353L695 353L695 351L694 352L692 350L700 342L702 342L702 340L696 344L697 340M701 445L700 442L707 431L706 428L710 426L711 423L709 421L712 420L712 418L715 419L721 415M711 457L708 448L706 448L704 446L705 445L701 445M719 405L719 403L715 403L712 400L710 400L711 401L708 403L707 402L709 400L707 398L703 401M704 355L703 355M728 351L724 351L724 353L721 354L720 357L717 354L715 356L712 355L712 357L708 351L705 352L704 355M731 388L730 389L728 387L724 387L723 386L725 384L723 384L723 382L722 383L720 381L722 379L721 378L723 378L722 375L726 375L727 372L724 371L724 373L720 373L720 371L717 368L719 364L715 364L716 363L713 360L704 355M713 298L711 296L714 293L710 293L706 289L704 291L705 292L699 295L701 297L697 301L697 303L700 306L704 306L706 304L708 305M715 315L712 316L707 313L709 309L708 305M709 304L708 305M709 304L711 304L711 300M711 300L708 301L709 304M711 457L712 458M713 298L711 300M712 459L713 459M713 298L716 301L714 301L714 303L718 309M719 405L725 399L724 398L729 395L727 393L730 392L731 388M719 405L718 408L721 411L721 415M737 425L736 422L732 424L730 420L727 423L724 422L724 415L721 415M727 287L729 285L729 275L734 280L734 282L740 276L741 277L744 274L748 274L750 271L758 271L761 268L763 268L763 264M732 301L732 298L729 295L727 295L727 293L724 292L727 287M741 389L738 392L731 388M739 426L740 426M740 317L742 317M749 384L744 381L743 387L741 389M744 393L741 389M745 393L746 393M761 223L761 225L760 224L758 226L753 219L754 216L768 204L770 210L772 198L776 196L775 188L782 173L776 165L773 167L773 169L758 170L755 161L756 158L752 154L749 157L747 157L747 155L744 153L748 147L746 143M746 393L747 392M748 392L749 392M750 391L751 391M753 391L754 391M755 390L756 390M825 263L820 263L816 257L814 259L814 257L811 259L810 258L808 262L806 262L802 256L801 251L798 254L799 255L796 256L793 250L790 251L791 246L789 244L781 244L779 240L770 241L766 237L766 231L759 232M759 232L758 228L763 226L763 224L762 225L761 223M759 232L756 234L756 238L753 235L750 236L748 234L747 237L750 239L752 243L750 246L752 254L757 253L759 251L762 260L762 262L760 262L763 264M761 223L761 223M761 223L761 223M761 223L761 223M763 264L764 263L769 268L769 270L772 267L773 268L775 276L777 278L778 277L776 279L776 283L778 283L777 284L780 287L778 291L780 291M620 347L621 346L620 347M649 429L650 428L649 429M677 401L677 401" id="省界"/>
    <path class="leaflet-interactive" stroke="#3388ff" stroke-opacity="0" stroke-width="3" stroke-linecap="round" stroke-linejoin="round" fill="#eee" fill-opacity="0.5" fill-rule="evenodd" d="M712 294L714 294L709 293L707 289L702 294L699 295L701 297L700 299L697 300L697 303L700 306L704 306L706 304L707 305L709 303L708 300L713 299L711 297L712 294z" id="北京市"/>
    <path class="leaflet-interactive" stroke="#3388ff" stroke-opacity="0" stroke-width="3" stroke-linecap="round" stroke-linejoin="round" fill="#eee" fill-opacity="0.5" fill-rule="evenodd" d="M716 307L717 306L714 303L714 301L716 301L713 298L711 300L711 304L708 305L709 309L707 313L715 315L717 311L716 310L718 308L715 307zM716 307L716 307z" id="天津市"/>
    <path class="leaflet-interactive" stroke="#3388ff" stroke-opacity="0" stroke-width="3" stroke-linecap="round" stroke-linejoin="round" fill="#eee" fill-opacity="0.5" fill-rule="evenodd" d="M713 294L711 296L716 301L714 301L714 303L721 312L728 306L728 303L732 301L730 295L728 295L725 292L725 290L728 287L720 286L720 278L719 279L717 277L718 276L716 272L710 274L707 280L701 280L696 282L696 284L693 283L693 280L691 278L689 278L687 284L684 285L684 289L688 297L690 297L685 300L689 302L689 308L685 310L682 315L682 319L685 321L686 324L683 330L684 331L681 335L684 338L693 341L695 339L696 340L696 336L700 332L701 328L704 326L705 327L708 323L712 323L717 318L714 315L710 315L707 313L709 309L707 304L705 306L699 306L697 304L697 301L701 297L699 295L702 294L707 289L709 293L713 294zM711 300L708 301L709 304L711 304L711 300zM716 307L715 307zM724 309L724 310z" id="河北省"/>
    <path class="leaflet-interactive" stroke="#3388ff" stroke-opacity="0" stroke-width="3" stroke-linecap="round" stroke-linejoin="round" fill="#eee" fill-opacity="0.5" fill-rule="evenodd" d="M656 355L666 353L669 350L670 351L670 349L676 349L682 345L683 338L681 334L684 332L683 331L686 326L685 321L682 318L684 314L683 311L688 310L690 306L689 303L685 300L690 297L688 297L687 293L682 297L679 296L676 297L675 299L673 297L668 305L666 304L663 307L660 317L657 320L657 322L660 325L656 331L658 343L655 352L656 355z" id="山西省"/>
    <path class="leaflet-interactive" stroke="#3388ff" stroke-opacity="0" stroke-width="3" stroke-linecap="round" stroke-linejoin="round" fill="#eee" fill-opacity="0.5" fill-rule="evenodd" d="M550 270L555 283L553 285L559 291L559 294L563 294L565 292L566 293L566 291L573 291L575 294L574 298L569 302L579 307L579 311L582 311L585 314L587 314L589 312L587 310L592 308L596 310L600 307L605 306L607 310L604 315L600 317L600 323L608 327L617 324L620 321L620 313L622 309L623 310L623 308L626 307L629 310L629 312L625 318L628 320L632 320L632 322L637 323L637 325L642 325L643 322L646 321L645 318L653 309L652 308L653 309L655 307L654 306L656 308L658 308L661 305L663 307L666 304L667 305L673 297L675 299L679 296L682 297L686 295L684 285L687 284L689 278L691 278L693 280L692 283L695 284L700 280L702 282L705 279L706 280L709 278L709 274L713 274L716 272L718 276L717 277L719 279L720 278L720 286L727 287L729 285L729 279L727 277L729 275L734 280L734 282L740 276L741 277L744 274L748 274L754 270L757 271L763 267L763 265L760 262L762 262L762 260L759 251L752 255L750 248L752 244L747 237L748 234L750 236L753 235L756 238L756 234L759 232L758 228L763 226L762 223L760 223L761 224L759 226L757 225L757 223L753 219L754 216L762 211L768 204L770 210L772 198L776 196L775 188L782 173L776 165L773 167L773 169L758 169L755 162L756 157L754 157L751 154L748 157L744 153L748 147L747 144L742 143L734 151L734 153L739 153L740 160L733 167L734 168L729 175L730 176L727 182L729 182L728 185L715 192L707 188L700 204L700 208L698 209L698 212L701 215L704 212L713 215L717 210L722 211L732 221L733 226L731 228L726 227L724 225L716 228L714 227L712 230L708 230L703 236L704 237L699 241L691 241L686 247L682 249L676 248L673 245L668 245L665 253L669 261L661 265L656 271L644 275L633 274L624 277L613 284L610 283L609 281L598 280L594 277L592 278L585 273L564 273L551 271z" id="内蒙古自治区"/>
    <path class="leaflet-interactive" stroke="#3388ff" stroke-opacity="0" stroke-width="3" stroke-linecap="round" stroke-linejoin="round" fill="#eee" fill-opacity="0.5" fill-rule="evenodd" d="M762 303L766 303L773 295L774 296L780 291L780 287L777 284L778 283L776 283L776 279L778 277L777 278L775 276L775 272L772 267L769 270L769 267L764 263L762 268L759 269L760 270L753 270L753 272L751 271L748 274L744 274L734 282L734 280L729 275L727 277L729 279L729 284L725 289L725 292L728 295L730 295L732 301L738 298L738 296L743 291L748 291L752 295L749 298L750 299L745 303L746 304L743 306L747 308L747 310L746 309L746 311L745 310L743 314L748 311L749 312L748 311L754 306L762 303zM755 308L755 308zM752 309L752 309zM755 308L756 309L755 308zM756 311L755 310L756 311zM758 305L757 306L758 305zM754 308L754 309zM740 295L740 295zM758 306L758 306zM759 311L759 311zM763 303L764 303z" id="辽宁省"/>
    <path class="leaflet-interactive" stroke="#3388ff" stroke-opacity="0" stroke-width="3" stroke-linecap="round" stroke-linejoin="round" fill="#eee" fill-opacity="0.5" fill-rule="evenodd" d="M811 275L813 268L815 268L819 274L819 272L817 271L821 270L824 267L825 264L817 261L817 257L815 259L813 257L809 259L808 262L806 262L802 256L801 251L798 254L799 255L796 256L793 250L790 251L791 246L789 244L781 244L779 240L775 242L773 240L770 241L766 237L766 233L764 231L760 231L756 234L756 238L753 235L750 236L748 234L747 237L750 239L752 244L750 246L752 254L754 255L759 251L762 260L762 262L760 262L762 264L764 263L767 266L768 265L768 268L770 270L772 267L773 268L775 276L777 278L778 277L776 279L776 283L778 283L777 284L780 287L780 291L783 290L789 281L793 285L800 286L798 279L806 279L809 274L811 275z" id="吉林省"/>
    <path class="leaflet-interactive" stroke="#3388ff" stroke-opacity="0" stroke-width="3" stroke-linecap="round" stroke-linejoin="round" fill="#eee" fill-opacity="0.5" fill-rule="evenodd" d="M762 232L766 232L766 236L770 241L773 240L775 242L779 240L781 244L789 244L791 246L790 251L793 250L797 256L799 256L798 253L801 251L802 256L806 262L808 262L808 260L813 257L815 259L817 257L817 261L823 264L824 257L822 248L829 243L838 246L839 245L839 241L846 230L845 229L848 221L847 220L852 215L852 207L855 205L839 209L836 212L835 211L836 212L834 214L823 215L819 210L821 208L818 203L820 200L816 200L809 193L806 194L803 191L797 192L795 190L795 183L793 183L792 176L789 173L790 170L788 170L789 167L787 166L788 165L785 161L786 160L782 152L783 151L779 149L780 148L778 146L772 146L762 140L747 142L746 143L748 147L743 153L746 154L747 157L749 157L752 154L756 158L755 161L758 170L773 169L775 165L782 172L780 180L775 187L776 195L772 197L770 210L768 204L757 215L754 216L753 219L758 226L760 224L761 225L761 223L762 225L763 224L763 226L758 227L759 231L762 232z" id="黑龙江省"/>
    <path class="leaflet-interactive" stroke="#3388ff" stroke-opacity="0" stroke-width="3" stroke-linecap="round" stroke-linejoin="round" fill="#eee" fill-opacity="0.5" fill-rule="evenodd" d="M741 389L745 393L750 390L745 385L743 385L741 389zM749 384L744 381L743 382L746 385L750 385zM748 387L746 385L748 387zM748 386L751 387L748 386zM747 385L746 385zM749 388L749 387zM749 387L749 387z" id="上海市"/>
    <path class="leaflet-interactive" stroke="#3388ff" stroke-opacity="0" stroke-width="3" stroke-linecap="round" stroke-linejoin="round" fill="#eee" fill-opacity="0.5" fill-rule="evenodd" d="M712 356L711 357L708 352L704 354L711 360L714 360L716 364L718 364L717 369L719 369L721 373L725 371L727 373L726 376L722 374L723 377L720 381L722 383L723 382L723 384L725 384L723 387L729 387L728 388L732 388L738 392L745 384L743 383L744 381L749 384L749 381L741 373L737 360L729 354L727 350L724 351L721 357L719 357L717 354L715 356L712 356z" id="江苏省"/>
    <path class="leaflet-interactive" stroke="#3388ff" stroke-opacity="0" stroke-width="3" stroke-linecap="round" stroke-linejoin="round" fill="#eee" fill-opacity="0.5" fill-rule="evenodd" d="M721 415L724 416L724 422L727 423L731 420L732 423L736 422L738 425L739 421L743 419L742 416L743 417L747 415L747 407L750 406L748 402L751 400L747 399L742 394L744 392L741 389L738 392L732 388L730 392L727 393L729 395L726 396L724 398L725 399L718 406L718 408L721 411L721 414zM751 399L752 400L752 398L750 397L751 399zM751 397L751 398zM752 402L752 402zM753 392L753 392zM751 396L752 397L751 396zM752 397L752 396zM750 407L750 406zM753 400L753 400zM753 395L753 395zM748 410L749 410zM752 400L752 401zM748 407L748 407zM743 421L743 421zM749 392L750 393L749 392zM749 413L749 413zM751 402L750 401L751 402zM753 399L753 400zM754 393L754 393zM749 413L749 413zM750 397L750 397zM753 399L753 399zM748 399L749 398L748 399zM742 422L742 422zM749 406L750 407L749 406zM750 401L750 402zM749 398L749 398zM749 396L749 396zM751 399L751 399zM752 402L752 401zM743 419L743 419zM756 398L756 398zM752 396L752 396zM752 400L752 400zM756 392L756 392zM742 418L743 417L742 418zM743 418L744 417L743 418zM753 399L753 399zM756 392L756 392zM751 399L752 399zM750 399L750 399zM742 418L742 417zM753 400L753 400zM751 399L751 399z" id="浙江省"/>
    <path class="leaflet-interactive" stroke="#3388ff" stroke-opacity="0" stroke-width="3" stroke-linecap="round" stroke-linejoin="round" fill="#eee" fill-opacity="0.5" fill-rule="evenodd" d="M706 361L707 362L703 364L699 360L699 365L697 365L696 368L692 370L695 373L695 375L701 375L701 382L699 382L696 385L700 389L702 389L699 393L703 401L706 400L706 398L709 400L707 402L708 403L711 400L713 400L714 403L721 404L725 399L724 398L729 395L727 393L729 393L731 389L728 388L729 387L723 387L725 385L721 381L723 377L722 374L726 376L727 373L725 371L721 373L719 369L717 369L719 364L715 364L716 362L714 360L710 360L705 355L703 356L704 358L706 358L706 361zM724 385L725 385zM707 402L707 402zM697 376L697 376z" id="安徽省"/>
    <path class="leaflet-interactive" stroke="#3388ff" stroke-opacity="0" stroke-width="3" stroke-linecap="round" stroke-linejoin="round" fill="#eee" fill-opacity="0.5" fill-rule="evenodd" d="M726 445L725 442L727 444L726 443L729 442L727 442L727 440L733 440L729 438L731 438L731 434L733 432L731 430L733 430L733 428L734 429L732 431L735 430L734 429L737 426L737 424L732 424L730 420L728 423L725 422L723 414L720 415L720 417L716 419L713 418L710 421L711 423L706 428L707 431L705 435L702 437L700 445L704 445L706 447L705 448L708 447L709 454L712 457L719 451L718 448L722 449L724 447L723 446L726 445zM721 449L720 450L721 449zM729 443L730 442L729 443zM730 439L730 439zM733 434L733 433zM719 450L719 449zM733 429L733 429zM719 449L718 448L719 449zM733 434L733 434zM731 434L730 434zM734 431L734 431zM731 439L731 438zM732 430L732 430zM735 430L735 430zM736 427L736 427zM735 428L735 428zM731 430L732 429L731 430z" id="福建省"/>
    <path class="leaflet-interactive" stroke="#3388ff" stroke-opacity="0" stroke-width="3" stroke-linecap="round" stroke-linejoin="round" fill="#eee" fill-opacity="0.5" fill-rule="evenodd" d="M719 405L718 403L714 403L713 400L711 400L708 403L707 402L709 400L707 398L701 402L697 400L697 402L695 402L692 405L688 405L685 408L687 410L687 415L683 419L682 423L684 423L683 426L686 431L685 433L687 433L685 441L691 442L687 447L689 449L696 446L699 448L700 447L702 438L707 431L706 428L711 424L710 421L713 418L716 419L721 416L721 412L718 408L719 405z" id="江西省"/>
    <path class="leaflet-interactive" stroke="#3388ff" stroke-opacity="0" stroke-width="3" stroke-linecap="round" stroke-linejoin="round" fill="#eee" fill-opacity="0.5" fill-rule="evenodd" d="M704 355L705 352L708 351L711 356L715 356L717 354L720 357L722 354L724 354L723 353L725 351L729 350L729 348L736 341L736 339L736 341L739 340L740 337L741 338L740 335L741 336L749 332L752 333L755 327L745 327L745 325L739 323L735 324L736 325L732 328L732 330L728 330L725 326L728 325L728 323L725 320L722 321L717 318L712 323L708 323L705 326L704 325L704 327L703 326L704 327L701 328L701 330L696 335L696 344L702 340L702 342L700 342L692 350L699 356L704 355zM739 322L740 322zM739 321L739 321zM742 337L741 337zM740 320L740 319zM741 318L741 317zM735 344L735 343zM739 322L738 321zM740 318L740 318zM746 325L746 325zM746 325L746 325zM746 325L746 325zM697 342L697 342z" id="山东省"/>
    <path class="leaflet-interactive" stroke="#3388ff" stroke-opacity="0" stroke-width="3" stroke-linecap="round" stroke-linejoin="round" fill="#eee" fill-opacity="0.5" fill-rule="evenodd" d="M675 377L678 376L681 378L683 376L685 383L690 383L691 385L694 384L696 386L697 383L701 382L701 376L697 376L695 372L692 371L696 369L699 360L703 364L707 362L703 355L697 355L697 353L695 353L694 351L693 352L692 349L702 341L697 342L696 344L697 341L695 339L693 341L684 338L682 345L677 349L670 348L669 351L656 356L663 372L670 377L674 377zM683 377L683 378z" id="河南省"/>
    <path class="leaflet-interactive" stroke="#3388ff" stroke-opacity="0" stroke-width="3" stroke-linecap="round" stroke-linejoin="round" fill="#eee" fill-opacity="0.5" fill-rule="evenodd" d="M662 369L649 369L652 372L654 372L653 375L650 374L649 378L650 383L654 386L655 390L648 394L640 394L642 397L640 401L642 401L645 404L644 405L646 404L647 407L648 404L650 402L651 403L651 401L658 402L658 398L668 400L671 403L675 403L677 401L678 404L682 400L682 406L684 408L687 405L693 405L692 404L698 400L701 402L702 401L702 397L700 395L700 391L702 389L698 388L694 384L691 385L690 382L685 383L683 377L670 377L667 374L666 375L662 369zM646 394L646 394zM662 369L662 369zM675 377L675 377zM676 401L677 401z" id="湖北省"/>
    <path class="leaflet-interactive" stroke="#3388ff" stroke-opacity="0" stroke-width="3" stroke-linecap="round" stroke-linejoin="round" fill="#eee" fill-opacity="0.5" fill-rule="evenodd" d="M669 447L671 443L675 443L675 445L677 445L676 442L678 440L682 442L685 439L685 435L687 434L685 434L686 431L684 429L684 423L682 423L682 421L683 418L686 417L685 416L687 414L687 410L684 407L683 408L682 401L678 404L677 401L675 403L671 403L668 400L657 398L657 402L649 402L647 406L647 417L649 421L647 423L646 422L646 424L643 426L648 425L650 427L650 429L648 429L647 432L652 437L652 434L656 436L658 433L664 433L663 436L665 436L661 445L665 443L665 447L669 446zM649 429L649 429z" id="湖南省"/>
    <path class="leaflet-interactive" stroke="#3388ff" stroke-opacity="0" stroke-width="3" stroke-linecap="round" stroke-linejoin="round" fill="#eee" fill-opacity="0.5" fill-rule="evenodd" d="M682 469L683 465L689 467L690 464L692 466L695 463L697 465L699 463L705 463L708 460L708 458L711 457L708 447L705 448L706 447L704 445L700 445L700 448L698 448L697 446L689 449L687 447L691 443L690 441L685 442L685 440L679 440L677 442L676 441L678 443L676 445L674 443L670 444L671 445L669 447L669 453L664 458L665 461L662 465L659 466L658 469L656 469L655 472L654 471L652 474L651 473L652 476L650 480L652 486L656 486L658 484L655 481L657 477L669 474L671 472L679 472L682 469zM710 458L710 458zM676 473L675 474L676 473zM673 474L674 474zM687 470L687 470zM657 478L658 479L658 477L657 478zM673 474L673 473zM657 479L655 479L658 479zM683 471L683 471zM683 471L683 471zM678 472L678 472zM684 467L684 467zM687 471L687 471zM687 471L686 471zM708 481L709 482L707 483L709 483L708 481zM677 472L677 472zM656 482L656 482zM658 480L658 480zM658 485L658 485zM701 478L702 479L701 478zM701 479L701 479zM700 464L700 464zM700 464L700 464z" id="广东省"/>
    <path class="leaflet-interactive" stroke="#3388ff" stroke-opacity="0" stroke-width="3" stroke-linecap="round" stroke-linejoin="round" fill="#eee" fill-opacity="0.5" fill-rule="evenodd" d="M649 435L648 438L645 437L644 438L646 438L644 440L643 439L642 442L641 440L639 440L638 443L636 443L630 439L628 443L621 447L614 444L611 448L609 448L616 453L621 452L623 454L622 457L620 457L617 460L620 463L625 462L627 464L625 468L627 469L626 471L637 475L642 473L645 474L645 476L647 476L650 474L651 475L651 473L652 474L655 471L656 472L656 470L659 469L659 467L665 462L665 456L669 454L668 452L670 450L668 446L665 448L664 443L662 445L661 444L665 437L663 437L663 433L658 433L655 436L653 434L652 437L649 435zM614 445L614 445zM646 479L646 479z" id="广西壮族自治区"/>
    <path class="leaflet-interactive" stroke="#bb88ff" stroke-opacity="0" stroke-width="3" stroke-linecap="round" stroke-linejoin="round" fill="#eee" fill-opacity="0.5" fill-rule="evenodd" d="M654 488L647 489L642 494L642 500L644 502L650 504L658 498L658 495L662 491L659 487L654 487zM671 621L671 621zM679 587L680 586zM669 621L669 621zM665 513L666 512L665 513zM715 529L715 528zM671 620L671 620zM667 520L668 520zM666 520L667 520zM684 591L688 591L690 589L689 588L685 591zM685 580L686 581L685 580zM685 581L685 581zM669 519L669 519zM667 518L668 517L667 518zM671 581L671 581zM684 593L684 593zM687 581L687 581zM671 513L672 514L671 513zM691 568L691 568zM700 574L700 573zM690 572L691 571zM683 591L684 590zM649 593L651 591L653 592L649 592zM704 580L704 580zM673 522L674 521L673 522zM674 581L674 581zM689 564L690 564zM673 519L673 519zM705 568L706 568zM672 514L672 514zM665 518L666 518zM697 572L698 572zM691 586L691 586zM689 587L690 586zM695 584L696 585L695 584zM684 588L685 587zM697 576L697 576zM705 578L705 578zM682 580L683 579L682 580zM691 563L692 562L691 563zM690 560L690 559zM693 564L693 564zM666 518L666 518zM685 580L685 581zM653 589L653 588zM707 559L708 560L707 559zM667 517L667 517zM673 518L674 517L673 518zM667 521L668 521zM684 571L684 570zM692 586L692 586zM706 573L706 574zM696 570L696 570zM708 567L708 567zM691 520L691 520zM701 577L701 577zM683 578L683 578zM691 591L691 591zM689 565L690 565zM716 565L716 565zM687 569L687 569zM691 559L691 559zM707 567L707 567zM657 587L658 586L657 587zM665 583L665 583zM695 583L696 583zM679 587L679 587zM686 564L686 564zM712 569L712 568zM687 521L687 521zM658 587L658 587zM697 584L698 583zM666 591L666 591zM666 582L667 582zM657 589L657 589zM672 580L672 580zM705 573L705 573zM669 587L669 587zM689 525L689 525zM693 562L694 562zM686 522L686 522zM702 571L702 570zM712 566L712 565zM692 594L692 594zM676 580L676 580zM667 590L667 590zM671 581L671 581zM673 605L674 605zM690 581L690 580zM692 588L692 587zM677 584L677 584zM682 596L682 596zM707 519L707 519zM712 571L712 570zM677 492L677 492zM689 521L689 521zM684 495L684 495zM674 611L675 611zM666 588L666 588zM671 580L672 580zM676 589L677 589zM674 607L674 607zM673 607L673 606zM696 539L696 539zM682 569L682 569zM684 526L684 526zM677 612L677 612zM674 611L674 611zM672 607L672 607zM671 515L671 515zM671 524L671 524zM674 609L674 609zM673 606L673 606zM679 601L679 601zM703 575L703 575zM693 592L693 591zM666 589L666 589zM685 523L685 523zM693 521L693 522zM707 579L707 579zM674 518L675 518zM663 489L663 489zM699 568L700 568zM711 565L711 566zM675 519L675 519zM700 567L700 567zM673 575L674 575zM690 525L690 525zM712 562L712 563zM715 563L715 563zM687 576L687 576zM691 573L691 574zM674 604L674 604z" id="海南省"/>
    <path class="leaflet-interactive" stroke="#3388ff" stroke-opacity="0" stroke-width="3" stroke-linecap="round" stroke-linejoin="round" fill="#eee" fill-opacity="0.5" fill-rule="evenodd" d="M624 413L625 410L626 413L630 409L631 410L633 406L635 406L636 409L640 407L640 411L642 411L642 413L645 416L648 412L648 408L646 404L644 404L644 402L640 401L642 397L640 395L642 395L643 393L646 394L654 391L655 388L653 385L651 383L647 383L645 380L641 378L641 380L639 380L641 384L637 388L638 387L636 392L632 392L633 393L629 399L627 399L626 396L623 397L619 395L619 397L617 397L619 399L616 405L619 406L619 408L621 408L624 412zM646 393L646 394zM618 398L618 398zM646 394L646 394zM629 399L629 399z" id="重庆市"/>
    <path class="leaflet-interactive" stroke="#3388ff" stroke-opacity="0" stroke-width="3" stroke-linecap="round" stroke-linejoin="round" fill="#eee" fill-opacity="0.5" fill-rule="evenodd" d="M582 425L587 435L596 432L596 424L601 419L601 415L602 416L604 414L603 413L607 411L607 415L609 415L607 417L609 419L615 417L616 420L623 420L623 416L619 414L618 415L618 413L621 410L624 413L623 409L619 409L619 407L615 403L619 400L618 397L617 398L620 395L623 397L626 396L626 398L629 399L633 392L637 391L637 387L641 384L639 380L641 380L641 378L637 378L634 376L633 377L633 375L630 376L629 373L622 374L622 372L620 372L618 374L617 371L616 374L610 374L607 371L608 368L606 364L599 363L596 358L591 361L593 365L588 370L587 365L586 370L582 368L583 373L577 375L575 373L574 374L572 370L571 373L564 370L560 360L554 360L552 364L555 367L552 369L553 370L551 372L559 378L563 386L561 388L564 392L566 413L568 416L568 412L570 410L574 414L573 417L576 420L578 418L582 425zM623 397L623 397zM629 398L629 398zM617 397L617 397z" id="四川省"/>
    <path class="leaflet-interactive" stroke="#3388ff" stroke-opacity="0" stroke-width="3" stroke-linecap="round" stroke-linejoin="round" fill="#eee" fill-opacity="0.5" fill-rule="evenodd" d="M647 413L646 416L644 416L643 413L642 414L642 412L640 411L640 407L636 409L636 407L633 406L632 409L630 409L626 413L625 410L624 413L621 410L618 413L618 415L619 414L623 416L623 419L617 419L614 423L611 424L608 422L606 424L604 422L602 426L603 431L610 430L607 439L610 442L612 442L609 446L611 448L615 444L621 448L623 446L622 445L628 443L630 439L632 440L632 442L637 443L639 441L638 440L642 441L642 439L644 440L646 438L644 438L645 437L648 438L649 433L647 433L647 429L649 429L649 425L644 426L646 424L645 423L649 421L647 413zM649 428L649 428zM649 429L650 429z" id="贵州省"/>
    <path class="leaflet-interactive" stroke="#3388ff" stroke-opacity="0" stroke-width="3" stroke-linecap="round" stroke-linejoin="round" fill="#eee" fill-opacity="0.5" fill-rule="evenodd" d="M615 420L613 416L612 418L609 419L607 417L609 415L607 415L608 412L604 412L604 414L602 416L601 415L600 420L596 424L597 431L594 434L594 432L588 435L581 425L579 421L580 420L578 418L576 420L573 417L574 414L570 410L568 412L568 416L566 414L566 406L564 406L564 410L562 408L561 411L563 414L561 416L559 414L558 415L559 422L562 421L563 424L563 434L561 434L562 436L554 444L555 445L553 449L555 451L553 453L554 454L558 452L564 452L562 454L564 457L563 458L565 461L569 461L566 469L571 470L575 475L579 475L581 473L583 475L582 476L586 478L587 473L585 468L587 466L590 467L593 464L597 467L600 464L604 466L607 463L608 465L612 463L611 462L614 459L617 460L620 457L622 457L623 454L621 452L616 453L613 449L609 449L611 444L611 442L608 439L610 430L608 429L604 431L602 428L604 422L606 424L608 422L612 424L615 421z" id="云南省"/>
    <path class="leaflet-interactive" stroke="#3388ff" stroke-opacity="0" stroke-width="3" stroke-linecap="round" stroke-linejoin="round" fill="#eee" fill-opacity="0.5" fill-rule="evenodd" d="M490 340L481 337L471 337L463 339L460 344L459 343L457 345L454 343L445 348L436 347L435 344L431 344L431 346L429 346L427 349L415 347L415 349L413 351L412 350L411 355L409 357L405 357L401 361L401 365L406 372L405 377L403 377L402 374L399 375L399 379L402 381L402 387L405 390L408 389L413 394L414 393L418 395L422 399L424 395L429 396L441 407L443 405L446 406L445 407L450 412L453 411L455 415L458 414L460 418L462 416L462 418L466 416L469 419L477 419L479 417L483 417L482 422L484 424L491 415L499 417L501 419L503 417L505 421L509 423L510 428L521 427L527 421L532 420L535 418L535 416L538 415L542 415L549 419L552 417L551 416L553 412L558 416L558 414L562 416L562 408L564 410L564 406L566 406L564 397L565 396L563 389L561 387L564 386L560 382L558 376L551 375L552 378L551 377L550 380L546 380L547 383L543 381L542 384L540 382L537 383L535 381L536 378L533 378L534 377L529 374L521 376L516 373L510 373L505 370L499 370L495 368L489 361L491 359L491 352L489 352L488 349L491 343L487 341L490 340z" id="西藏自治区"/>
    <path class="leaflet-interactive" stroke="#3388ff" stroke-opacity="0" stroke-width="3" stroke-linecap="round" stroke-linejoin="round" fill="#eee" fill-opacity="0.5" fill-rule="evenodd" d="M656 355L655 352L658 345L656 331L660 325L657 319L661 315L661 311L663 308L662 305L658 308L654 306L655 307L653 309L652 308L653 309L646 316L646 321L644 321L642 325L638 325L635 322L631 326L631 332L638 336L639 335L642 338L642 348L635 348L635 352L625 350L626 353L624 355L627 358L625 358L626 360L624 362L626 365L620 365L619 368L621 369L619 372L617 372L621 372L623 374L629 373L630 376L633 375L633 377L634 376L637 379L640 378L650 383L649 376L651 374L655 374L652 371L651 372L651 370L649 369L658 368L659 370L661 368L656 355zM661 366L661 366zM622 373L622 373z" id="陕西省"/>
    <path class="leaflet-interactive" stroke="#3388ff" stroke-opacity="0" stroke-width="3" stroke-linecap="round" stroke-linejoin="round" fill="#eee" fill-opacity="0.5" fill-rule="evenodd" d="M625 344L624 349L620 347L621 346L619 346L616 343L616 333L609 327L604 326L602 323L600 323L600 317L604 315L607 310L605 306L600 307L597 310L592 308L589 309L589 312L587 314L580 311L579 307L577 307L571 302L568 302L573 298L575 294L574 291L566 291L566 293L565 292L562 294L562 292L559 294L559 291L556 289L554 285L554 279L550 270L542 272L540 274L542 277L541 280L535 283L532 282L524 289L522 293L516 294L514 304L511 308L512 311L514 309L518 309L518 312L522 312L524 314L527 313L529 317L538 317L542 320L544 318L546 319L546 317L549 314L549 309L558 313L559 310L561 312L563 310L566 311L565 312L572 318L574 319L574 316L577 319L578 318L582 323L590 325L597 341L588 353L588 355L591 358L587 360L580 357L579 358L582 364L587 366L588 365L588 369L591 368L590 367L592 367L593 365L590 361L592 361L595 358L598 360L599 363L606 364L608 368L607 371L610 374L616 374L617 371L620 371L620 365L626 365L625 358L627 358L624 355L626 353L625 350L634 352L636 351L634 349L635 348L641 349L641 343L643 341L642 337L633 333L630 330L626 330L626 334L624 336L625 339L629 341L628 344L626 344zM621 346L622 346zM595 338L596 338zM622 347L622 347zM625 344L625 344z" id="甘肃省"/>
    <path class="leaflet-interactive" stroke="#3388ff" stroke-opacity="0" stroke-width="3" stroke-linecap="round" stroke-linejoin="round" fill="#eee" fill-opacity="0.5" fill-rule="evenodd" d="M595 338L595 334L589 324L588 325L586 323L582 323L580 319L579 320L574 316L574 318L572 318L564 310L562 310L561 312L559 310L557 313L552 309L548 309L549 314L546 317L546 319L544 318L542 320L538 317L529 318L527 313L524 314L522 312L518 312L518 310L515 309L503 314L498 314L493 317L494 319L497 318L496 324L503 330L498 333L498 335L501 336L501 339L499 341L493 339L491 341L487 341L491 343L488 348L488 350L491 353L491 359L489 361L495 368L499 370L502 369L510 373L519 374L521 376L529 374L536 379L535 381L537 383L540 382L542 384L543 381L547 383L546 380L547 381L550 380L551 377L552 378L551 375L553 375L552 370L554 367L552 363L555 359L560 361L563 368L567 372L570 373L572 371L574 373L573 374L576 373L578 375L583 373L582 368L585 368L586 370L587 366L583 364L579 359L581 357L586 360L591 358L588 355L588 353L592 349L591 348L595 346L594 344L597 341L596 338z" id="青海省"/>
    <path class="leaflet-interactive" stroke="#3388ff" stroke-opacity="0" stroke-width="3" stroke-linecap="round" stroke-linejoin="round" fill="#eee" fill-opacity="0.5" fill-rule="evenodd" d="M631 330L631 326L634 323L631 320L625 318L629 311L627 307L623 308L623 310L622 309L620 313L620 321L618 324L607 327L609 327L616 334L615 335L617 339L617 344L619 344L619 346L621 346L624 349L624 344L628 344L629 341L625 338L625 332L627 330L631 330zM621 346L621 347zM622 347L622 347z" id="宁夏回族自治区"/>
    <path class="leaflet-interactive" stroke="#3388ff" stroke-opacity="0" stroke-width="3" stroke-linecap="round" stroke-linejoin="round" fill="#eee" fill-opacity="0.5" fill-rule="evenodd" d="M544 271L540 266L537 257L535 257L536 254L532 254L520 246L510 246L504 244L503 245L501 243L500 244L498 239L501 234L499 231L501 227L500 223L498 223L494 214L488 210L485 211L481 209L481 207L476 203L477 202L474 201L474 196L472 198L467 197L467 201L462 206L460 205L456 209L458 218L456 222L452 224L443 223L436 220L430 238L430 240L433 242L432 244L427 243L426 241L424 243L417 245L416 244L411 247L415 250L415 256L418 263L418 266L415 268L416 269L413 272L414 277L409 281L397 286L396 288L394 288L394 290L387 290L382 297L379 296L377 298L377 294L373 296L370 295L371 297L369 297L366 300L365 299L362 302L363 305L360 306L361 311L362 310L361 313L364 316L365 314L370 316L372 324L371 325L373 327L371 329L367 329L378 334L380 336L379 341L382 343L383 342L391 347L396 346L396 350L398 352L397 354L403 358L411 356L412 351L415 349L415 347L427 349L432 344L434 344L437 347L442 348L454 343L456 345L459 344L464 339L468 339L471 337L481 337L491 341L493 339L499 341L501 337L498 334L503 330L497 324L497 318L494 319L493 316L511 311L516 294L522 293L526 287L532 282L534 282L535 284L537 281L539 281L542 277L540 274L542 272z" id="新疆维吾尔自治区"/>
    <path class="leaflet-interactive" stroke="#3388ff" stroke-opacity="0" stroke-width="3" stroke-linecap="round" stroke-linejoin="round" fill="#eee" fill-opacity="0.5" fill-rule="evenodd" d="M737 467L740 472L741 466L745 461L749 449L749 443L743 443L738 449L736 455L734 456L736 466zM770 436L770 436zM761 438L762 437L761 438zM731 457L730 458zM763 436L763 436zM730 456L729 457L730 456zM730 459L730 459zM730 456L730 456zM750 439L750 439zM745 465L746 465zM746 470L746 470zM750 440L751 440zM729 460L729 460zM736 468L737 468z" id="台湾省"/>
    <path class="leaflet-interactive" stroke="#3388ff" stroke-opacity="0" stroke-width="3" stroke-linecap="round" stroke-linejoin="round" fill="#eee" fill-opacity="0.5" fill-rule="evenodd" d="M686 466L686 468L684 468L685 469L689 467L686 466zM686 469L687 469zM688 467L688 467zM688 467L688 467zM688 467L688 467zM688 468L688 468zM688 467L688 467zM688 468L688 468zM688 468L688 468z" id="香港特别行政区"/>
    <path class="leaflet-interactive" stroke="#3388ff" stroke-opacity="0" stroke-width="3" stroke-linecap="round" stroke-linejoin="round" fill="#eee" fill-opacity="0.5" fill-rule="evenodd" d="M682 470L682 469zM682 469L682 469z" id="澳门特别行政区"/>
    <!--<path class="leaflet-interactive" stroke="#3388ff" stroke-opacity="0" stroke-width="3" stroke-linecap="round" stroke-linejoin="round" fill="#eee" fill-opacity="0.5" fill-rule="evenodd" d="M754 458L756 448L754 458zM743 481L749 473L743 481zM729 505L734 496L729 505zM726 530L726 521L726 530zM723 562L722 564L725 555L724 558zM698 595L703 588L698 595zM672 624L668 625L676 622L673 623zM639 603L640 604L639 596L639 603zM654 560L656 557L656 553L655 559zM652 528L648 520L651 526z" id="100000_JD"/>--></g></svg>