<svg xmlns="http://www.w3.org/2000/svg" pointer-events="none" class="leaflet-zoom-animated" width="1452" height="857" viewBox="-121 -71 1452 857" style="transform: translate3d(-121px, -71px, 0px);"><g><path class="leaflet-interactive" stroke="black" stroke-opacity="1" stroke-width="2" stroke-linecap="round" stroke-linejoin="round" fill="#fff" fill-opacity="0.2" fill-rule="evenodd" d="M728 585L729 592L733 595L733 612L737 614L738 617L732 624L733 628L731 632L748 640L752 640L752 638L757 636L760 637L760 635L762 635L764 638L768 638L770 641L766 645L766 653L762 653L762 659L764 662L763 664L766 668L766 672L763 672L762 675L762 681L766 684L774 683L775 681L772 679L773 676L777 674L777 672L770 665L771 663L778 661L779 658L784 664L784 666L787 667L788 669L786 675L789 676L786 684L787 686L783 688L781 691L781 694L785 699L785 703L792 696L794 696L795 701L798 702L803 699L808 701L807 704L815 708L818 707L818 702L820 699L822 702L828 705L828 703L830 702L827 698L827 695L832 691L831 689L835 685L834 683L836 681L834 679L836 676L836 671L838 671L838 668L840 667L839 666L844 661L846 662L852 659L852 653L854 652L854 649L858 647L855 640L853 640L850 643L847 641L842 644L840 642L841 638L851 633L849 630L854 626L855 623L852 622L852 620L849 619L850 618L848 618L847 601L850 599L850 592L858 579L857 575L847 572L846 566L837 558L836 560L834 560L832 557L831 553L835 545L833 543L830 543L831 532L827 527L823 526L821 532L816 531L815 535L806 537L809 524L808 521L800 519L799 516L802 512L801 505L804 502L805 497L800 497L802 493L800 490L798 491L796 488L795 489L795 486L793 492L791 490L788 490L790 489L789 483L786 483L785 485L788 485L787 487L789 489L787 489L786 487L786 489L783 488L782 486L779 485L779 482L777 483L775 478L775 467L772 464L774 464L774 460L772 460L773 459L769 459L769 457L766 457L762 460L761 464L755 472L758 474L755 477L753 477L753 480L747 476L744 476L745 470L742 471L741 469L743 466L740 464L740 462L738 462L739 464L735 464L738 457L740 459L744 455L747 457L751 457L752 455L754 457L754 447L758 438L756 436L756 429L754 429L761 414L759 413L759 411L763 399L758 397L755 393L756 392L752 390L747 384L743 384L740 381L739 379L742 378L743 375L741 372L741 366L742 364L749 364L751 362L754 362L758 364L760 367L771 357L770 351L774 349L777 350L778 356L780 358L779 359L784 363L789 361L792 364L796 362L805 350L812 344L818 344L819 341L822 340L826 342L832 342L830 352L833 357L832 358L834 357L835 359L841 356L855 343L857 346L859 345L857 348L863 354L860 360L862 365L873 348L885 338L886 342L889 341L892 338L891 337L893 334L900 330L902 327L901 324L907 320L907 322L909 321L910 315L917 310L922 309L932 303L936 305L938 304L938 306L942 304L945 305L948 309L949 315L952 318L956 318L965 301L964 299L966 292L968 291L966 289L963 290L963 283L961 283L961 274L970 268L969 266L971 264L968 261L968 251L965 246L966 238L963 232L964 230L960 226L952 226L944 216L939 217L938 216L943 211L938 211L935 209L932 210L924 204L920 206L909 204L910 202L913 201L912 198L915 197L911 193L911 182L908 182L904 179L896 180L891 178L881 180L871 179L869 181L855 181L852 179L853 176L849 173L850 171L853 170L852 168L842 164L841 159L822 143L812 139L810 140L808 138L804 139L800 137L796 131L789 129L784 122L775 121L766 113L753 106L749 109L740 107L737 110L735 110L746 123L746 126L732 126L732 128L735 130L730 134L735 138L733 141L727 137L722 139L721 142L725 146L724 149L733 159L737 159L739 163L745 166L746 165L746 168L754 173L757 173L753 177L755 178L754 183L756 186L758 186L748 192L748 195L745 192L742 194L742 196L736 202L738 203L738 205L731 207L732 209L729 212L718 211L712 214L713 217L715 217L717 220L715 222L716 226L708 231L708 234L710 234L712 237L711 239L700 246L700 248L696 248L691 251L691 254L693 255L698 253L697 255L699 259L695 266L692 267L689 271L691 274L691 278L694 279L695 282L689 284L686 290L680 289L681 300L687 301L682 305L682 307L674 312L672 316L668 319L664 318L662 315L657 315L657 308L654 305L648 307L641 315L636 311L634 312L631 310L627 312L625 309L621 312L623 316L620 320L618 320L619 322L616 321L616 326L614 326L620 338L626 341L622 348L614 356L616 357L615 359L612 359L605 369L603 379L596 387L590 402L576 419L573 420L572 424L569 423L569 430L567 431L566 429L564 430L565 432L562 432L561 429L557 425L555 425L552 431L541 433L539 430L529 435L529 433L528 434L524 432L524 429L520 426L521 420L517 419L518 414L514 412L514 409L512 409L512 407L511 408L512 405L509 402L512 400L511 395L502 390L500 393L497 392L496 394L492 393L492 391L488 393L488 391L486 392L488 393L485 394L486 396L484 396L485 398L483 401L480 399L481 401L478 400L473 403L470 402L470 404L468 404L469 407L466 408L466 406L464 405L465 407L462 408L461 411L461 407L458 407L454 402L452 392L450 390L447 389L447 392L445 390L444 391L442 387L440 387L434 381L423 382L423 380L421 380L420 378L418 380L418 377L414 378L416 379L415 380L413 377L414 376L411 379L411 376L407 372L399 380L401 381L398 384L398 387L396 387L397 390L393 390L393 395L396 398L388 400L385 396L382 396L380 399L381 402L383 404L386 404L387 406L385 406L384 409L380 411L372 410L371 413L373 416L375 413L377 413L378 416L375 417L379 421L384 422L384 426L387 427L390 431L394 431L395 433L397 432L399 434L396 437L396 444L394 444L394 447L392 448L394 450L393 452L396 453L396 458L394 458L393 461L390 459L387 461L381 460L379 464L377 463L377 469L375 471L376 475L374 476L374 478L372 476L370 481L371 482L370 483L365 479L363 481L364 485L358 485L356 483L353 486L352 485L352 489L350 490L351 492L347 493L345 497L343 495L342 500L339 503L339 506L343 509L343 515L345 517L343 519L348 520L348 518L350 517L353 520L351 520L352 521L349 523L357 523L357 525L359 526L359 528L357 529L358 530L355 533L356 537L360 537L363 539L361 542L365 544L367 543L368 546L380 545L380 547L383 544L385 548L388 547L387 545L389 545L390 542L394 542L391 543L393 550L392 559L394 560L395 565L398 566L395 569L397 574L399 575L397 579L400 583L400 586L405 591L404 594L408 593L411 596L414 595L419 600L420 595L429 590L427 589L428 588L436 593L435 597L437 599L438 597L443 600L450 599L453 597L457 599L463 605L463 617L465 617L465 623L467 624L470 633L472 634L469 636L473 639L472 641L475 646L473 651L474 654L475 653L477 655L482 648L493 654L495 652L490 646L491 644L495 646L496 649L498 647L496 647L494 644L496 639L495 635L497 635L498 633L494 623L490 620L488 615L490 615L488 613L491 611L490 610L492 611L503 621L502 626L506 630L510 631L510 634L513 634L514 637L510 637L512 640L512 642L509 642L508 645L510 651L506 655L502 656L503 661L506 660L506 657L509 659L512 658L512 660L520 662L520 665L522 666L526 663L524 652L531 649L531 647L528 646L528 642L530 642L531 640L534 645L537 644L537 640L541 640L544 630L541 630L540 626L537 624L536 621L539 617L542 618L544 615L547 615L549 613L553 618L557 618L557 607L560 606L561 602L564 603L564 605L567 604L565 603L568 600L568 605L571 601L578 603L583 603L584 601L586 604L584 609L588 609L586 612L587 618L591 620L593 616L598 613L601 613L603 610L602 608L606 608L610 605L609 604L611 601L613 601L612 598L616 593L612 591L610 586L607 586L606 583L610 579L609 576L608 577L607 572L612 571L614 566L611 557L614 557L616 555L619 556L620 560L625 556L628 556L632 552L635 563L637 561L644 561L644 563L649 564L650 562L652 562L652 558L656 556L657 559L663 564L660 578L665 580L665 584L663 587L667 590L671 591L673 585L676 584L679 580L691 579L697 572L707 577L713 575L719 581L721 579L723 572L725 572L727 573L727 585zM830 350L830 346L828 346L828 351L830 351zM377 419L375 418zM829 351L830 352zM567 431L566 431z" id="重庆市"/><path class="leaflet-interactive" stroke="#333" stroke-opacity="1" stroke-width="1" stroke-linecap="round" stroke-linejoin="round" stroke-dasharray="1,6" fill="#eee" fill-opacity="0.5" fill-rule="evenodd" d="M692 352L695 352L697 350L701 352L701 349L704 350L704 353L706 353L710 361L712 360L717 366L719 371L717 374L721 379L723 377L726 377L731 370L731 367L737 357L739 357L740 355L741 358L739 360L741 360L741 362L743 361L742 363L749 364L751 362L754 362L758 364L760 367L771 357L770 351L774 349L777 350L778 356L780 358L779 359L784 363L789 361L792 364L796 362L805 350L800 346L804 341L804 336L801 333L795 336L794 334L789 335L788 333L790 332L786 331L783 317L780 315L778 316L772 304L768 306L769 300L766 297L764 300L759 300L755 292L756 288L752 290L752 292L750 291L747 293L744 287L733 294L731 293L734 298L722 305L721 307L719 305L717 306L717 309L711 314L704 312L702 313L699 307L701 306L697 304L692 307L692 305L688 301L682 305L682 307L674 312L672 316L682 330L689 331L697 329L699 331L697 333L698 338L693 338L691 340L691 350z" id="万州区"/><path class="leaflet-interactive" stroke="#333" stroke-opacity="1" stroke-width="1" stroke-linecap="round" stroke-linejoin="round" stroke-dasharray="1,6" fill="#eee" fill-opacity="0.5" fill-rule="evenodd" d="M649 494L651 488L647 487L640 481L641 476L639 474L642 472L641 465L637 466L637 459L640 456L636 454L637 452L636 449L633 447L634 445L631 445L626 440L625 443L623 443L623 441L619 437L617 437L608 448L608 452L607 451L602 454L601 459L597 461L594 461L594 459L586 461L583 468L573 472L572 474L570 472L568 473L563 479L560 480L556 491L552 512L557 513L560 516L561 513L561 515L563 516L562 526L566 527L565 529L568 532L574 531L573 528L578 527L576 524L580 522L581 525L585 524L585 526L587 526L586 531L590 531L588 523L593 522L601 512L601 510L609 507L614 510L615 514L620 510L628 523L631 518L638 514L637 506L643 503L649 496z" id="涪陵区"/><path class="leaflet-interactive" stroke="#333" stroke-opacity="1" stroke-width="1" stroke-linecap="round" stroke-linejoin="round" stroke-dasharray="1,6" fill="#eee" fill-opacity="0.5" fill-rule="evenodd" d="M506 501L501 501L499 504L492 504L494 504L495 507L499 507L500 505L506 503z" id="渝中区"/><path class="leaflet-interactive" stroke="#333" stroke-opacity="1" stroke-width="1" stroke-linecap="round" stroke-linejoin="round" stroke-dasharray="1,6" fill="#eee" fill-opacity="0.5" fill-rule="evenodd" d="M485 522L484 523L483 520L481 522L483 529L483 531L481 532L482 535L494 526L498 528L499 527L494 519L495 515L498 513L491 512L489 514L490 513L491 515L489 515L488 518L489 522L488 524L486 524z" id="大渡口区"/><path class="leaflet-interactive" stroke="#333" stroke-opacity="1" stroke-width="1" stroke-linecap="round" stroke-linejoin="round" stroke-dasharray="1,6" fill="#eee" fill-opacity="0.5" fill-rule="evenodd" d="M490 495L488 498L493 503L499 504L501 501L506 501L505 498L506 495L508 494L511 494L512 498L515 498L518 502L526 498L527 495L539 500L545 488L543 488L542 490L538 487L537 488L535 485L532 485L527 489L526 486L524 490L522 490L522 492L519 493L514 491L505 491L503 498L499 498L496 500L493 499L492 495z" id="江北区"/><path class="leaflet-interactive" stroke="#333" stroke-opacity="1" stroke-width="1" stroke-linecap="round" stroke-linejoin="round" stroke-dasharray="1,6" fill="#eee" fill-opacity="0.5" fill-rule="evenodd" d="M492 504L494 503L488 498L490 495L489 493L491 488L489 486L488 489L485 488L487 475L484 474L483 476L471 476L469 481L466 481L467 491L465 492L467 493L464 496L464 508L467 506L468 507L469 505L473 505L476 502L479 506L484 505L483 512L487 512L493 505z" id="沙坪坝区"/><path class="leaflet-interactive" stroke="#333" stroke-opacity="1" stroke-width="1" stroke-linecap="round" stroke-linejoin="round" stroke-dasharray="1,6" fill="#eee" fill-opacity="0.5" fill-rule="evenodd" d="M463 506L464 518L469 520L472 522L471 524L473 524L472 528L467 528L467 531L464 536L468 538L466 543L469 547L481 542L481 532L483 531L481 525L482 520L486 524L488 524L488 518L489 515L491 515L490 513L489 514L491 512L495 512L500 515L501 513L499 507L495 507L494 504L492 504L493 505L487 512L483 512L484 505L482 506L481 504L479 506L479 504L476 502L473 505L469 505L468 507L467 506L464 508zM485 522L485 522zM483 520L483 520z" id="九龙坡区"/><path class="leaflet-interactive" stroke="#333" stroke-opacity="1" stroke-width="1" stroke-linecap="round" stroke-linejoin="round" stroke-dasharray="1,6" fill="#eee" fill-opacity="0.5" fill-rule="evenodd" d="M533 498L532 496L527 495L526 498L519 502L515 498L513 498L511 494L508 494L506 495L505 498L506 503L500 505L499 510L504 513L505 516L506 515L507 517L508 515L517 517L521 513L525 514L532 500z" id="南岸区"/><path class="leaflet-interactive" stroke="#333" stroke-opacity="1" stroke-width="1" stroke-linecap="round" stroke-linejoin="round" stroke-dasharray="1,6" fill="#eee" fill-opacity="0.5" fill-rule="evenodd" d="M514 424L511 425L506 430L507 433L504 435L500 447L498 445L497 448L495 447L495 449L489 457L490 454L487 454L490 448L486 452L485 451L485 454L481 452L480 448L471 454L474 464L478 465L475 470L471 472L470 476L483 476L484 474L486 474L487 477L485 488L488 489L489 484L491 482L496 484L496 481L499 478L497 472L499 470L499 474L502 474L504 472L506 474L508 471L507 469L509 467L506 467L506 465L514 459L516 452L518 451L516 450L519 447L517 447L517 428z" id="北碚区"/><path class="leaflet-interactive" stroke="#333" stroke-opacity="1" stroke-width="1" stroke-linecap="round" stroke-linejoin="round" stroke-dasharray="1,6" fill="#eee" fill-opacity="0.5" fill-rule="evenodd" d="M566 601L565 593L563 594L561 592L563 587L556 580L556 577L553 574L551 579L548 577L548 568L540 562L536 563L535 559L530 561L527 559L524 561L519 557L516 560L516 562L514 561L515 559L513 559L508 566L504 566L506 573L506 581L509 583L507 584L505 582L502 584L501 581L498 580L497 576L495 576L493 573L492 583L489 582L487 579L490 579L487 578L480 581L481 586L483 588L482 594L484 603L488 605L489 609L503 621L502 626L506 630L510 631L510 634L513 634L514 637L510 637L512 640L512 642L509 642L508 645L510 651L506 655L502 656L503 661L506 660L506 657L509 659L512 658L512 660L520 662L520 665L522 666L526 663L524 652L531 649L531 647L528 646L528 642L530 642L531 640L534 645L537 644L537 640L541 640L544 630L541 630L540 626L537 624L536 621L539 617L542 618L544 615L547 615L549 613L553 618L557 618L557 607L560 606L561 602L564 603L564 605L567 604L565 603L566 601z" id="綦江区"/><path class="leaflet-interactive" stroke="#333" stroke-opacity="1" stroke-width="1" stroke-linecap="round" stroke-linejoin="round" stroke-dasharray="1,6" fill="#eee" fill-opacity="0.5" fill-rule="evenodd" d="M364 485L367 491L368 498L371 498L372 501L374 498L378 498L378 511L380 510L384 515L384 510L385 512L387 511L387 517L390 519L394 517L396 519L397 521L395 523L395 526L397 526L395 528L398 530L405 521L409 507L414 505L414 503L421 497L428 486L430 487L434 478L434 474L430 474L430 471L427 469L418 469L417 466L416 471L413 473L405 471L406 469L403 468L402 465L402 467L394 469L393 468L397 460L397 458L394 458L393 461L390 459L387 461L381 460L379 464L377 463L377 469L375 471L376 475L374 476L374 478L372 476L370 483L365 479L363 481L364 483z" id="大足区"/><path class="leaflet-interactive" stroke="#333" stroke-opacity="1" stroke-width="1" stroke-linecap="round" stroke-linejoin="round" stroke-dasharray="1,6" fill="#eee" fill-opacity="0.5" fill-rule="evenodd" d="M545 488L552 481L555 472L551 466L551 459L557 447L550 441L547 441L545 439L542 440L542 435L539 430L531 435L529 435L529 433L528 434L524 432L524 429L520 426L521 420L517 419L515 424L518 433L517 447L519 447L516 450L518 451L514 459L507 463L506 467L508 467L508 471L506 473L504 472L500 474L499 470L497 471L499 477L496 481L496 484L493 482L489 484L491 488L489 492L494 497L493 499L496 500L499 498L503 498L505 491L514 491L519 493L522 492L522 490L524 490L526 486L527 489L532 485L535 485L537 488L538 487L542 490L543 488z" id="渝北区"/><path class="leaflet-interactive" stroke="#333" stroke-opacity="1" stroke-width="1" stroke-linecap="round" stroke-linejoin="round" stroke-dasharray="1,6" fill="#eee" fill-opacity="0.5" fill-rule="evenodd" d="M501 513L500 515L495 515L494 519L499 527L498 528L494 526L489 529L486 533L492 532L491 536L493 542L496 544L495 545L497 551L499 552L500 557L503 561L501 562L501 564L504 566L508 566L513 559L515 559L514 561L516 562L516 560L519 557L524 561L527 559L529 561L535 559L536 563L540 562L545 566L547 561L546 557L548 556L549 558L552 558L555 553L553 548L551 547L549 540L549 526L559 480L558 471L555 472L552 481L545 488L540 500L533 498L525 513L520 513L517 517L508 515L507 517L506 515L505 516L504 513z" id="巴南区"/><path class="leaflet-interactive" stroke="#333" stroke-opacity="1" stroke-width="1" stroke-linecap="round" stroke-linejoin="round" stroke-dasharray="1,6" fill="#eee" fill-opacity="0.5" fill-rule="evenodd" d="M760 564L761 567L765 569L763 571L765 572L766 569L768 574L773 574L774 569L778 570L781 573L784 571L784 569L787 569L791 566L797 570L803 554L807 552L811 545L804 541L808 531L808 521L800 519L799 516L802 512L801 505L804 502L805 497L800 497L802 493L800 490L798 491L796 488L795 489L795 486L793 492L791 490L788 490L790 489L789 483L786 483L785 485L788 485L787 487L789 489L787 489L786 487L786 489L783 488L782 486L779 485L779 482L777 483L775 478L775 467L772 464L774 464L774 460L769 459L769 457L766 457L762 460L761 464L755 472L758 474L755 477L753 477L753 480L756 482L753 485L750 493L752 493L753 495L754 494L754 496L757 498L758 503L757 505L753 506L751 509L752 511L760 512L763 515L764 520L762 524L759 524L758 529L760 533L758 539L762 540L763 543L761 546L761 552L758 555L762 561L761 563z" id="黔江区"/><path class="leaflet-interactive" stroke="#333" stroke-opacity="1" stroke-width="1" stroke-linecap="round" stroke-linejoin="round" stroke-dasharray="1,6" fill="#eee" fill-opacity="0.5" fill-rule="evenodd" d="M555 472L558 471L559 480L563 479L570 472L572 474L573 472L583 468L586 464L586 461L594 459L594 461L597 461L601 459L602 454L607 451L608 452L608 448L617 437L618 435L615 432L607 441L602 441L597 437L599 436L599 432L595 431L591 426L594 425L594 423L596 424L597 419L597 417L594 417L596 412L592 406L588 404L576 419L573 420L572 424L569 423L569 430L567 431L566 429L564 430L565 432L562 432L561 429L557 425L555 425L552 431L541 433L542 439L550 441L557 447L552 456L551 461L551 466L554 471zM567 431L566 431z" id="长寿区"/><path class="leaflet-interactive" stroke="#333" stroke-opacity="1" stroke-width="1" stroke-linecap="round" stroke-linejoin="round" stroke-dasharray="1,6" fill="#eee" fill-opacity="0.5" fill-rule="evenodd" d="M408 593L411 596L416 596L416 598L419 600L420 595L429 590L427 589L428 588L436 593L435 597L437 599L438 597L443 600L450 599L453 597L457 599L463 605L464 608L462 611L463 617L465 617L465 623L467 624L470 633L472 634L469 636L473 639L472 641L475 646L473 651L474 654L475 653L477 655L482 648L489 651L491 654L495 652L490 646L491 644L495 646L496 649L498 647L496 647L494 644L496 639L495 635L497 635L498 633L494 623L490 620L488 615L490 615L488 613L491 611L488 605L483 601L483 588L481 586L480 581L482 581L484 578L490 579L487 579L489 582L492 583L493 573L501 581L501 584L505 582L506 584L509 583L506 581L505 569L504 566L501 564L501 562L503 561L500 557L501 554L497 552L497 548L495 545L496 544L493 542L491 532L481 535L481 542L470 547L466 543L468 538L464 536L467 528L470 529L473 527L473 524L471 524L472 523L469 520L464 518L459 533L453 540L446 544L441 541L440 538L436 537L434 546L435 548L432 549L431 553L426 559L426 562L420 569L420 577L413 581L412 587L408 590L408 592z" id="江津区"/><path class="leaflet-interactive" stroke="#333" stroke-opacity="1" stroke-width="1" stroke-linecap="round" stroke-linejoin="round" stroke-dasharray="1,6" fill="#eee" fill-opacity="0.5" fill-rule="evenodd" d="M514 424L516 422L518 414L514 412L514 409L512 409L512 407L511 408L512 405L509 402L512 400L511 395L502 390L500 393L497 392L496 394L492 393L492 391L488 393L488 391L486 392L488 393L485 394L486 396L484 396L485 398L483 401L480 399L481 401L478 400L473 403L470 402L470 404L468 404L469 407L466 408L466 406L464 405L465 407L462 408L461 411L461 407L458 407L454 402L452 392L450 390L447 389L447 392L445 390L444 391L442 387L440 387L434 381L429 382L427 392L426 391L429 396L432 396L428 400L428 402L433 407L429 411L427 409L429 413L427 414L430 418L428 422L429 432L436 435L434 437L437 438L446 437L445 443L446 447L448 446L447 448L451 449L456 447L467 453L464 459L465 460L480 448L483 454L485 454L485 451L486 452L489 448L487 454L490 454L489 457L492 451L495 449L495 447L497 448L498 445L500 447L504 435L507 433L506 430L511 425zM462 451L462 451z" id="合川区"/><path class="leaflet-interactive" stroke="#333" stroke-opacity="1" stroke-width="1" stroke-linecap="round" stroke-linejoin="round" stroke-dasharray="1,6" fill="#eee" fill-opacity="0.5" fill-rule="evenodd" d="M387 544L389 545L390 542L394 542L391 543L393 550L392 559L394 560L395 565L398 566L395 569L397 574L399 575L397 579L400 583L400 586L405 591L404 594L406 594L408 593L408 590L411 589L413 581L420 577L419 571L426 562L426 559L431 553L432 549L435 548L435 539L439 530L440 510L442 504L432 508L430 507L430 505L426 506L422 504L420 506L416 501L413 506L412 505L409 507L405 521L401 525L400 529L398 530L396 528L385 535L385 538L383 538L386 543z" id="永川区"/><path class="leaflet-interactive" stroke="#333" stroke-opacity="1" stroke-width="1" stroke-linecap="round" stroke-linejoin="round" stroke-dasharray="1,6" fill="#eee" fill-opacity="0.5" fill-rule="evenodd" d="M566 601L568 600L568 605L571 601L578 603L583 603L584 601L586 604L584 609L588 609L586 612L587 618L591 620L593 616L598 613L601 613L603 610L602 608L606 608L610 605L609 604L611 601L613 601L612 598L616 593L613 592L610 586L607 586L606 583L610 579L609 576L608 577L607 572L612 571L614 566L610 555L610 550L613 546L611 543L609 544L608 541L610 537L604 534L601 535L594 532L593 528L590 529L590 531L586 531L587 526L585 526L585 524L581 525L580 522L576 524L578 527L573 527L574 531L568 532L565 529L566 528L562 526L562 513L560 516L557 513L552 512L550 519L551 520L549 544L553 548L555 553L552 558L549 558L548 556L546 557L547 561L545 566L549 570L547 577L551 579L553 574L553 576L558 579L556 580L563 587L561 592L563 594L566 594L565 597z" id="南川区"/><path class="leaflet-interactive" stroke="#333" stroke-opacity="1" stroke-width="1" stroke-linecap="round" stroke-linejoin="round" stroke-dasharray="1,6" fill="#eee" fill-opacity="0.5" fill-rule="evenodd" d="M463 506L464 496L467 493L465 492L467 487L466 481L469 481L471 472L475 470L478 465L474 464L475 461L474 462L474 458L471 454L458 468L451 473L452 474L450 480L452 485L446 491L440 510L440 519L438 527L439 530L436 537L440 538L446 544L453 540L459 533L465 512L463 508z" id="璧山区"/><path class="leaflet-interactive" stroke="#333" stroke-opacity="1" stroke-width="1" stroke-linecap="round" stroke-linejoin="round" stroke-dasharray="1,6" fill="#eee" fill-opacity="0.5" fill-rule="evenodd" d="M428 428L427 426L422 428L423 426L420 423L418 423L418 429L416 431L415 430L413 436L416 436L418 438L419 443L422 444L422 448L424 451L420 457L419 455L412 452L409 455L406 462L403 463L402 465L403 468L406 469L405 471L409 473L413 473L417 469L417 466L418 469L429 470L432 475L434 474L435 478L430 487L428 486L421 497L416 501L420 506L424 504L426 506L429 505L432 508L440 506L442 504L446 491L452 485L450 480L452 474L451 473L458 468L465 460L464 459L467 453L465 454L456 447L452 449L447 449L448 446L446 447L445 444L446 437L434 438L436 436L433 433L430 433L428 429zM461 450L462 450zM452 449L452 449z" id="铜梁区"/><path class="leaflet-interactive" stroke="#333" stroke-opacity="1" stroke-width="1" stroke-linecap="round" stroke-linejoin="round" stroke-dasharray="1,6" fill="#eee" fill-opacity="0.5" fill-rule="evenodd" d="M396 458L397 460L395 462L396 464L393 468L394 469L402 467L403 463L406 462L408 455L412 452L419 455L419 457L421 456L424 451L422 448L423 447L422 444L419 443L419 438L414 436L414 430L416 431L418 429L418 423L422 424L422 428L427 426L428 428L428 422L430 418L427 414L429 413L427 409L429 411L433 407L428 402L428 400L432 397L430 395L429 396L426 391L427 392L429 389L428 382L423 382L423 380L421 380L420 378L418 380L418 377L414 378L416 379L415 380L413 377L414 376L411 379L411 376L407 372L399 380L401 381L398 384L398 387L396 387L397 390L393 390L393 395L396 398L388 400L385 396L382 396L380 399L381 402L383 404L386 404L387 406L385 406L384 409L380 411L372 410L371 413L373 416L375 413L377 413L378 416L375 417L379 421L384 422L384 426L387 427L390 431L394 431L395 433L397 432L399 434L396 437L396 444L394 444L394 447L392 448L394 450L393 452L396 453L396 456zM377 419L375 418z" id="潼南区"/><path class="leaflet-interactive" stroke="#333" stroke-opacity="1" stroke-width="1" stroke-linecap="round" stroke-linejoin="round" stroke-dasharray="1,6" fill="#eee" fill-opacity="0.5" fill-rule="evenodd" d="M387 544L383 538L385 538L385 535L393 531L397 526L395 526L397 521L396 519L394 517L390 519L387 517L387 511L385 512L384 510L384 515L380 510L378 511L378 498L374 498L372 501L371 498L368 498L367 491L364 487L365 485L358 485L356 483L353 486L352 485L352 489L350 490L351 492L347 493L345 497L343 495L342 500L339 503L339 506L343 509L343 515L345 517L343 519L348 520L348 518L350 517L353 520L351 520L352 521L349 523L357 523L359 528L355 533L356 537L360 537L363 539L361 542L365 544L367 543L368 546L380 545L380 547L383 544L385 548L388 547L387 545z" id="荣昌区"/><path class="leaflet-interactive" stroke="#333" stroke-opacity="1" stroke-width="1" stroke-linecap="round" stroke-linejoin="round" stroke-dasharray="1,6" fill="#eee" fill-opacity="0.5" fill-rule="evenodd" d="M758 186L748 192L748 195L745 192L742 194L742 196L736 202L738 203L738 205L731 207L732 209L729 212L718 211L712 214L713 217L715 217L717 220L715 222L716 226L708 231L708 234L710 234L712 237L711 239L700 246L700 248L696 248L691 251L691 254L693 255L698 253L697 255L699 257L695 266L692 267L689 271L691 274L691 278L694 279L695 282L689 284L686 290L680 289L680 297L681 300L689 302L692 305L692 307L697 304L701 306L699 307L702 313L713 313L717 309L719 304L721 307L722 305L734 298L731 293L733 294L743 286L749 284L749 280L754 277L757 273L760 274L758 272L760 268L765 264L765 262L763 261L765 253L771 247L770 245L773 243L770 240L770 238L778 236L777 234L779 231L777 231L777 229L782 229L786 222L778 218L777 213L786 212L791 201L798 201L799 198L803 196L803 189L799 187L799 185L789 184L787 185L785 190L780 193L778 192L777 194L771 194L768 190L760 187z" id="开州区"/><path class="leaflet-interactive" stroke="#333" stroke-opacity="1" stroke-width="1" stroke-linecap="round" stroke-linejoin="round" stroke-dasharray="1,6" fill="#eee" fill-opacity="0.5" fill-rule="evenodd" d="M672 316L668 319L664 318L662 315L657 315L657 308L654 305L648 307L641 315L636 311L634 312L631 310L627 312L625 309L621 312L623 316L620 320L618 320L619 322L616 321L616 326L614 326L620 338L626 341L622 348L614 356L616 357L615 359L611 360L621 366L623 363L627 364L628 362L630 362L632 366L640 365L641 367L644 367L646 370L644 375L655 359L663 367L664 359L666 356L665 354L670 354L671 356L673 355L673 361L680 365L682 358L684 359L692 353L690 343L693 338L698 338L697 333L699 331L697 329L689 331L682 330L673 317z" id="梁平区"/><path class="leaflet-interactive" stroke="#333" stroke-opacity="1" stroke-width="1" stroke-linecap="round" stroke-linejoin="round" stroke-dasharray="1,6" fill="#eee" fill-opacity="0.5" fill-rule="evenodd" d="M611 558L616 555L619 556L620 560L625 556L628 556L632 552L635 563L637 561L644 561L644 563L649 564L650 562L652 562L652 558L656 556L657 559L663 564L660 578L665 580L672 577L671 574L673 574L674 572L673 569L675 558L676 557L680 559L684 556L687 550L689 551L687 546L688 539L685 531L687 526L686 524L690 516L690 511L698 503L696 501L699 498L698 496L695 493L691 494L685 492L681 496L679 488L669 486L666 498L667 503L665 505L664 503L658 500L660 499L658 499L657 496L653 499L649 494L649 496L640 505L637 506L639 514L636 514L631 518L628 523L620 510L615 514L614 510L609 507L601 510L601 512L595 520L588 523L588 525L590 529L592 528L594 530L594 532L610 537L607 541L609 542L609 544L611 543L613 545L610 550L610 555z" id="武隆区"/><path class="leaflet-interactive" stroke="#333" stroke-opacity="1" stroke-width="1" stroke-linecap="round" stroke-linejoin="round" stroke-dasharray="1,6" fill="#eee" fill-opacity="0.5" fill-rule="evenodd" d="M853 180L853 176L849 173L850 171L853 170L852 168L842 164L841 159L822 143L812 139L810 140L808 138L804 139L800 137L796 131L789 129L784 122L775 121L766 113L753 106L749 109L740 107L737 110L735 110L746 123L746 126L732 126L732 128L735 130L730 134L735 138L733 141L727 137L722 139L721 142L725 146L724 149L733 159L737 159L739 163L745 166L746 165L746 168L754 173L757 173L753 177L755 178L754 183L756 186L768 190L770 194L777 194L778 192L780 193L785 190L785 188L789 184L799 185L799 187L802 189L816 189L817 184L821 184L824 181L834 181L837 183L838 182L845 184L845 178L851 180z" id="城口县"/><path class="leaflet-interactive" stroke="#333" stroke-opacity="1" stroke-width="1" stroke-linecap="round" stroke-linejoin="round" stroke-dasharray="1,6" fill="#eee" fill-opacity="0.5" fill-rule="evenodd" d="M649 494L653 499L657 496L658 499L660 499L658 500L665 505L667 501L666 499L669 486L678 488L681 493L681 496L685 492L691 494L698 494L702 497L708 497L709 494L711 494L711 489L708 490L706 488L711 482L711 474L712 475L716 470L712 467L713 465L710 461L707 462L707 460L704 459L699 461L695 458L697 456L692 452L694 451L687 442L688 440L690 441L692 439L690 431L688 429L686 430L681 427L674 419L672 422L668 419L666 421L664 420L664 417L668 413L658 408L657 401L655 402L655 404L653 403L652 405L650 405L651 404L648 402L646 404L645 403L646 400L644 398L641 405L638 406L636 410L632 412L634 418L631 420L631 423L627 425L628 428L620 439L623 443L625 443L626 440L631 445L633 444L633 447L636 449L637 452L636 454L640 456L638 457L636 462L637 466L641 465L642 472L639 474L641 476L640 481L646 487L651 488L649 494z" id="丰都县"/><path class="leaflet-interactive" stroke="#333" stroke-opacity="1" stroke-width="1" stroke-linecap="round" stroke-linejoin="round" stroke-dasharray="1,6" fill="#eee" fill-opacity="0.5" fill-rule="evenodd" d="M617 437L619 437L620 439L621 438L628 426L627 425L631 423L632 419L634 419L632 416L632 412L637 409L634 407L633 404L632 408L630 408L629 404L631 401L633 401L632 397L635 396L634 394L636 393L636 390L632 388L636 385L640 378L643 377L646 370L644 367L641 367L641 365L638 367L632 366L630 362L628 362L627 364L623 363L621 366L611 360L605 369L603 379L596 387L592 398L588 404L592 406L596 412L594 415L594 417L597 417L596 423L594 423L594 425L592 426L595 430L599 432L599 436L597 437L601 441L607 441L615 432L618 435L617 436z" id="垫江县"/><path class="leaflet-interactive" stroke="#333" stroke-opacity="1" stroke-width="1" stroke-linecap="round" stroke-linejoin="round" stroke-dasharray="1,6" fill="#eee" fill-opacity="0.5" fill-rule="evenodd" d="M717 374L719 371L717 366L713 360L710 361L710 357L707 357L706 353L704 353L704 350L702 349L701 352L697 350L695 352L692 352L686 358L682 358L680 365L673 361L673 355L671 356L670 354L665 354L666 356L664 359L664 367L655 359L647 372L643 377L640 378L636 385L632 388L636 390L636 393L634 394L635 396L632 397L633 401L631 401L629 404L630 408L632 408L633 404L636 408L640 406L644 398L646 400L645 403L646 404L650 402L650 405L652 405L652 403L654 404L657 401L658 408L668 413L664 417L664 419L666 421L668 419L672 422L674 419L680 427L686 430L692 424L693 427L695 426L699 421L700 418L698 414L696 414L697 411L699 411L702 406L704 406L704 404L701 404L700 399L704 402L704 399L706 398L704 392L707 393L709 389L707 387L703 388L699 385L704 384L707 378L710 376L715 376z" id="忠县"/><path class="leaflet-interactive" stroke="#333" stroke-opacity="1" stroke-width="1" stroke-linecap="round" stroke-linejoin="round" stroke-dasharray="1,6" fill="#eee" fill-opacity="0.5" fill-rule="evenodd" d="M805 350L814 343L818 344L820 335L819 331L823 328L824 324L822 316L824 309L826 307L828 309L834 308L833 306L836 306L835 302L837 302L836 297L840 297L844 300L845 299L844 290L849 283L845 280L842 280L841 278L833 280L829 279L829 269L824 268L823 263L823 260L825 261L826 259L828 259L828 254L825 247L821 244L824 239L823 232L804 229L802 230L802 237L796 236L794 232L795 231L790 227L792 225L786 222L783 225L782 229L777 229L777 231L779 231L777 234L778 235L770 238L770 240L773 243L770 245L771 247L765 253L762 261L765 262L765 264L760 268L758 272L760 274L757 273L757 275L749 280L749 284L741 288L744 287L747 293L750 291L752 292L752 290L756 288L755 292L759 300L761 301L764 300L766 297L769 300L768 306L772 304L778 316L780 315L783 317L786 331L790 332L788 333L788 335L793 334L794 336L801 333L804 336L804 341L800 346z" id="云阳县"/><path class="leaflet-interactive" stroke="#333" stroke-opacity="1" stroke-width="1" stroke-linecap="round" stroke-linejoin="round" stroke-dasharray="1,6" fill="#eee" fill-opacity="0.5" fill-rule="evenodd" d="M830 353L833 357L832 358L834 357L835 359L841 356L855 343L857 346L859 345L857 348L863 354L860 360L862 365L876 345L879 344L885 338L886 342L889 341L892 338L891 337L893 334L900 330L902 327L899 319L900 317L895 312L896 308L890 307L889 304L895 302L893 297L895 290L894 286L909 277L910 274L915 270L914 268L916 266L916 263L914 261L900 261L896 253L892 254L888 250L876 250L873 253L867 251L867 248L862 245L862 243L858 239L858 235L848 233L844 234L823 232L824 239L821 244L825 246L828 254L828 259L826 259L825 261L823 260L823 263L824 268L829 269L829 279L833 280L841 278L842 280L845 280L848 283L847 287L844 290L845 299L844 300L840 297L837 297L837 302L835 302L836 306L833 306L834 308L830 309L826 307L822 313L824 323L823 328L819 330L820 335L818 340L826 342L831 341L832 342L830 352zM830 351L830 346L828 346L827 348L829 351zM829 351L830 352z" id="奉节县"/><path class="leaflet-interactive" stroke="#333" stroke-opacity="1" stroke-width="1" stroke-linecap="round" stroke-linejoin="round" stroke-dasharray="1,6" fill="#eee" fill-opacity="0.5" fill-rule="evenodd" d="M901 323L907 320L907 322L909 321L910 315L917 310L922 309L932 303L936 305L938 304L938 306L942 304L945 305L948 309L949 315L952 318L956 318L965 301L965 295L968 291L966 289L963 290L963 283L961 283L961 274L970 268L969 266L971 264L968 261L968 251L965 246L966 238L963 232L964 230L960 226L952 226L944 216L938 216L938 223L934 229L923 229L918 231L918 233L916 233L914 236L910 234L908 243L902 243L899 241L895 243L893 247L894 248L892 248L890 251L891 254L898 254L897 259L900 261L914 261L916 263L916 266L914 268L915 270L910 274L909 277L894 285L895 290L893 297L895 302L889 304L890 307L896 308L895 312L900 317L900 321z" id="巫山县"/><path class="leaflet-interactive" stroke="#333" stroke-opacity="1" stroke-width="1" stroke-linecap="round" stroke-linejoin="round" stroke-dasharray="1,6" fill="#eee" fill-opacity="0.5" fill-rule="evenodd" d="M938 216L943 211L938 211L935 209L932 210L924 204L920 206L909 204L910 202L913 201L912 198L915 197L911 193L911 182L908 182L904 179L896 180L891 178L881 180L871 179L869 181L855 181L845 178L846 184L838 182L837 183L834 181L824 181L821 184L817 184L817 189L803 189L803 195L799 198L798 201L791 201L786 212L777 213L778 218L792 225L790 227L795 231L794 234L796 236L802 237L802 230L804 229L825 233L832 232L858 235L858 239L862 243L862 245L865 245L867 248L866 250L873 253L876 250L889 251L892 248L894 248L893 247L895 243L899 241L902 243L908 243L910 234L914 236L918 233L918 231L922 229L934 229L938 223L937 219z" id="巫溪县"/><path class="leaflet-interactive" stroke="#333" stroke-opacity="1" stroke-width="1" stroke-linecap="round" stroke-linejoin="round" stroke-dasharray="1,6" fill="#eee" fill-opacity="0.5" fill-rule="evenodd" d="M742 364L743 361L741 362L741 360L739 360L741 356L740 355L739 357L737 357L731 367L731 370L726 376L721 379L717 374L715 376L712 375L707 378L704 384L699 385L703 388L707 387L709 389L707 392L704 392L704 395L706 396L704 401L700 399L702 405L704 403L696 414L698 414L700 418L695 426L693 427L692 424L689 427L692 439L687 442L692 450L694 450L692 452L697 455L695 458L699 461L704 459L707 460L707 462L709 461L713 465L712 467L716 470L712 475L710 475L711 482L706 488L708 490L715 484L714 482L717 478L717 475L726 477L730 480L736 480L734 473L739 464L735 464L738 457L740 459L744 455L747 457L751 457L752 455L754 457L754 447L758 438L756 436L756 429L754 429L761 414L759 413L759 411L763 399L758 397L755 393L756 392L752 390L747 384L743 384L740 381L739 379L742 378L743 375L741 372L741 366z" id="石柱土家族自治县"/><path class="leaflet-interactive" stroke="#333" stroke-opacity="1" stroke-width="1" stroke-linecap="round" stroke-linejoin="round" stroke-dasharray="1,6" fill="#eee" fill-opacity="0.5" fill-rule="evenodd" d="M781 660L784 666L787 667L788 669L786 675L789 676L786 684L787 686L783 688L781 691L781 694L785 699L785 703L792 696L794 696L795 701L798 702L803 699L808 701L807 704L815 708L818 707L818 702L820 699L822 702L828 705L828 703L830 702L827 698L827 695L832 691L831 689L835 685L834 683L836 681L834 679L836 676L836 671L838 671L838 668L840 667L839 666L844 661L846 662L852 659L852 653L854 652L854 649L858 647L855 640L853 640L850 643L847 641L842 644L840 642L841 638L851 633L849 630L854 626L855 623L852 622L852 620L849 619L850 618L848 618L847 603L842 603L839 607L828 613L830 612L829 616L824 619L824 623L819 630L816 629L811 639L811 642L801 641L793 644L789 651L782 656z" id="秀山土家族苗族自治县"/><path class="leaflet-interactive" stroke="#333" stroke-opacity="1" stroke-width="1" stroke-linecap="round" stroke-linejoin="round" stroke-dasharray="1,6" fill="#eee" fill-opacity="0.5" fill-rule="evenodd" d="M847 603L847 601L850 599L850 592L858 579L857 575L847 572L846 566L837 558L836 560L834 560L832 557L831 553L835 545L833 543L830 543L831 532L825 526L823 526L821 532L816 531L815 535L806 537L804 541L811 545L806 553L803 554L797 570L791 566L787 569L784 569L784 571L781 573L774 569L774 573L769 574L767 569L765 572L763 571L765 569L761 567L760 564L757 565L753 571L749 573L748 572L742 577L736 578L730 583L730 585L728 585L729 592L733 595L733 612L737 614L738 617L732 624L733 628L731 632L748 640L752 640L752 638L757 636L760 637L760 635L762 635L764 638L768 638L770 641L766 645L766 653L762 653L762 659L764 662L763 664L766 668L766 672L763 672L762 675L762 681L766 684L774 683L775 681L772 679L773 676L777 674L776 670L770 665L771 663L778 661L779 658L781 660L782 656L789 651L791 646L796 643L801 641L811 642L814 632L816 629L819 630L822 626L824 620L829 616L830 612L828 613L844 602z" id="酉阳土家族苗族自治县"/><path class="leaflet-interactive" stroke="#333" stroke-opacity="1" stroke-width="1" stroke-linecap="round" stroke-linejoin="round" stroke-dasharray="1,6" fill="#eee" fill-opacity="0.5" fill-rule="evenodd" d="M728 585L730 585L730 583L736 578L753 571L756 568L756 566L760 564L762 561L758 555L761 552L761 546L763 544L762 540L758 539L760 533L758 529L759 524L762 524L764 520L760 512L753 511L751 509L754 505L758 504L757 498L754 496L754 494L753 495L752 493L750 493L753 485L756 482L751 478L744 476L745 470L742 471L741 469L743 466L740 464L740 462L738 462L739 464L734 473L736 480L730 480L726 476L723 477L719 474L716 477L717 478L714 482L715 484L713 487L709 489L711 489L711 493L708 497L702 497L696 494L699 498L698 500L696 500L698 503L690 511L690 516L686 524L687 526L685 531L688 539L687 546L689 551L687 550L684 556L680 559L676 557L675 558L673 569L674 572L673 574L671 574L672 577L665 580L665 584L663 587L671 591L673 585L676 584L679 580L691 579L697 572L707 577L713 575L719 581L721 579L723 572L725 572L727 573L727 585z" id="彭水苗族土家族自治县"/></g></svg>